<mxfile host="app.diagrams.net" agent="Mozilla/5.0 (Windows NT 10.0; Win64; x64) AppleWebKit/537.36 (KHTML, like Gecko) Chrome/136.0.0.0 Safari/537.36 Edg/136.0.0.0" version="27.0.9">
  <diagram name="Page-1" id="enIxqUN0M-IkAclhJr2Q">
    <mxGraphModel dx="1310" dy="105" grid="1" gridSize="10" guides="1" tooltips="1" connect="1" arrows="1" fold="1" page="1" pageScale="1" pageWidth="850" pageHeight="1100" math="0" shadow="0">
      <root>
        <mxCell id="0" />
        <mxCell id="1" parent="0" />
        <mxCell id="ama2miM17LIpOyO-21Nn-1" value="&lt;font style=&quot;font-size: 20px;&quot;&gt;Registration&lt;/font&gt;" style="shape=table;startSize=30;container=1;collapsible=1;childLayout=tableLayout;fixedRows=1;rowLines=0;fontStyle=1;align=center;resizeLast=1;html=1;labelBackgroundColor=#FFFFFF;swimlaneFillColor=default;fontSize=15;fillColor=#fa6800;fontColor=#000000;strokeColor=#C73500;" parent="1" vertex="1">
          <mxGeometry x="1568.5" y="1272" width="222" height="186" as="geometry" />
        </mxCell>
        <mxCell id="ama2miM17LIpOyO-21Nn-2" value="" style="shape=tableRow;horizontal=0;startSize=0;swimlaneHead=0;swimlaneBody=0;fillColor=none;collapsible=0;dropTarget=0;points=[[0,0.5],[1,0.5]];portConstraint=eastwest;top=0;left=0;right=0;bottom=1;labelBackgroundColor=#FFFFFF;strokeColor=inherit;fontSize=15;" parent="ama2miM17LIpOyO-21Nn-1" vertex="1">
          <mxGeometry y="30" width="222" height="32" as="geometry" />
        </mxCell>
        <mxCell id="ama2miM17LIpOyO-21Nn-3" value="PK" style="shape=partialRectangle;connectable=0;fillColor=none;top=0;left=0;bottom=0;right=0;fontStyle=1;overflow=hidden;whiteSpace=wrap;html=1;labelBackgroundColor=#FFFFFF;strokeColor=inherit;fontSize=15;" parent="ama2miM17LIpOyO-21Nn-2" vertex="1">
          <mxGeometry width="30" height="32" as="geometry">
            <mxRectangle width="30" height="32" as="alternateBounds" />
          </mxGeometry>
        </mxCell>
        <mxCell id="ama2miM17LIpOyO-21Nn-4" value="&lt;font style=&quot;font-size: 18px;&quot;&gt;ID&lt;/font&gt;" style="shape=partialRectangle;connectable=0;fillColor=none;top=0;left=0;bottom=0;right=0;align=left;spacingLeft=6;fontStyle=5;overflow=hidden;whiteSpace=wrap;html=1;labelBackgroundColor=#FFFFFF;strokeColor=inherit;fontSize=15;" parent="ama2miM17LIpOyO-21Nn-2" vertex="1">
          <mxGeometry x="30" width="192" height="32" as="geometry">
            <mxRectangle width="192" height="32" as="alternateBounds" />
          </mxGeometry>
        </mxCell>
        <mxCell id="ama2miM17LIpOyO-21Nn-5" value="" style="shape=tableRow;horizontal=0;startSize=0;swimlaneHead=0;swimlaneBody=0;fillColor=none;collapsible=0;dropTarget=0;points=[[0,0.5],[1,0.5]];portConstraint=eastwest;top=0;left=0;right=0;bottom=0;labelBackgroundColor=#FFFFFF;strokeColor=inherit;fontSize=15;" parent="ama2miM17LIpOyO-21Nn-1" vertex="1">
          <mxGeometry y="62" width="222" height="30" as="geometry" />
        </mxCell>
        <mxCell id="ama2miM17LIpOyO-21Nn-6" value="FK" style="shape=partialRectangle;connectable=0;fillColor=none;top=0;left=0;bottom=0;right=0;editable=1;overflow=hidden;whiteSpace=wrap;html=1;labelBackgroundColor=#FFFFFF;strokeColor=inherit;fontSize=15;" parent="ama2miM17LIpOyO-21Nn-5" vertex="1">
          <mxGeometry width="30" height="30" as="geometry">
            <mxRectangle width="30" height="30" as="alternateBounds" />
          </mxGeometry>
        </mxCell>
        <mxCell id="ama2miM17LIpOyO-21Nn-7" value="&lt;b&gt;Username&lt;/b&gt;" style="shape=partialRectangle;connectable=0;fillColor=none;top=0;left=0;bottom=0;right=0;align=left;spacingLeft=6;overflow=hidden;whiteSpace=wrap;html=1;labelBackgroundColor=#FFFFFF;strokeColor=inherit;fontSize=15;" parent="ama2miM17LIpOyO-21Nn-5" vertex="1">
          <mxGeometry x="30" width="192" height="30" as="geometry">
            <mxRectangle width="192" height="30" as="alternateBounds" />
          </mxGeometry>
        </mxCell>
        <mxCell id="ama2miM17LIpOyO-21Nn-8" value="" style="shape=tableRow;horizontal=0;startSize=0;swimlaneHead=0;swimlaneBody=0;fillColor=none;collapsible=0;dropTarget=0;points=[[0,0.5],[1,0.5]];portConstraint=eastwest;top=0;left=0;right=0;bottom=0;labelBackgroundColor=#FFFFFF;strokeColor=inherit;fontSize=15;" parent="ama2miM17LIpOyO-21Nn-1" vertex="1">
          <mxGeometry y="92" width="222" height="30" as="geometry" />
        </mxCell>
        <mxCell id="ama2miM17LIpOyO-21Nn-9" value="" style="shape=partialRectangle;connectable=0;fillColor=none;top=0;left=0;bottom=0;right=0;editable=1;overflow=hidden;whiteSpace=wrap;html=1;labelBackgroundColor=#FFFFFF;strokeColor=inherit;fontSize=15;" parent="ama2miM17LIpOyO-21Nn-8" vertex="1">
          <mxGeometry width="30" height="30" as="geometry">
            <mxRectangle width="30" height="30" as="alternateBounds" />
          </mxGeometry>
        </mxCell>
        <mxCell id="ama2miM17LIpOyO-21Nn-10" value="password" style="shape=partialRectangle;connectable=0;fillColor=none;top=0;left=0;bottom=0;right=0;align=left;spacingLeft=6;overflow=hidden;whiteSpace=wrap;html=1;labelBackgroundColor=#FFFFFF;strokeColor=inherit;fontSize=15;" parent="ama2miM17LIpOyO-21Nn-8" vertex="1">
          <mxGeometry x="30" width="192" height="30" as="geometry">
            <mxRectangle width="192" height="30" as="alternateBounds" />
          </mxGeometry>
        </mxCell>
        <mxCell id="ama2miM17LIpOyO-21Nn-11" value="" style="shape=tableRow;horizontal=0;startSize=0;swimlaneHead=0;swimlaneBody=0;fillColor=none;collapsible=0;dropTarget=0;points=[[0,0.5],[1,0.5]];portConstraint=eastwest;top=0;left=0;right=0;bottom=0;labelBackgroundColor=#FFFFFF;strokeColor=inherit;fontSize=15;" parent="ama2miM17LIpOyO-21Nn-1" vertex="1">
          <mxGeometry y="122" width="222" height="34" as="geometry" />
        </mxCell>
        <mxCell id="ama2miM17LIpOyO-21Nn-12" value="" style="shape=partialRectangle;connectable=0;fillColor=none;top=0;left=0;bottom=0;right=0;editable=1;overflow=hidden;whiteSpace=wrap;html=1;labelBackgroundColor=#FFFFFF;strokeColor=inherit;fontSize=15;" parent="ama2miM17LIpOyO-21Nn-11" vertex="1">
          <mxGeometry width="30" height="34" as="geometry">
            <mxRectangle width="30" height="34" as="alternateBounds" />
          </mxGeometry>
        </mxCell>
        <mxCell id="ama2miM17LIpOyO-21Nn-13" value="Confirm password" style="shape=partialRectangle;connectable=0;fillColor=none;top=0;left=0;bottom=0;right=0;align=left;spacingLeft=6;overflow=hidden;whiteSpace=wrap;html=1;labelBackgroundColor=#FFFFFF;strokeColor=inherit;fontSize=15;" parent="ama2miM17LIpOyO-21Nn-11" vertex="1">
          <mxGeometry x="30" width="192" height="34" as="geometry">
            <mxRectangle width="192" height="34" as="alternateBounds" />
          </mxGeometry>
        </mxCell>
        <mxCell id="ama2miM17LIpOyO-21Nn-14" value="" style="endArrow=none;html=1;rounded=0;fontFamily=Helvetica;fontSize=15;fontColor=default;horizontal=0;exitX=0.016;exitY=-0.075;exitDx=0;exitDy=0;exitPerimeter=0;entryX=0.994;entryY=0.89;entryDx=0;entryDy=0;entryPerimeter=0;labelBackgroundColor=#FFFFFF;strokeColor=none;" parent="ama2miM17LIpOyO-21Nn-1" target="ama2miM17LIpOyO-21Nn-5" edge="1">
          <mxGeometry width="50" height="50" relative="1" as="geometry">
            <mxPoint x="-0.11999999999989086" y="89.75" as="sourcePoint" />
            <mxPoint x="187" y="90" as="targetPoint" />
          </mxGeometry>
        </mxCell>
        <mxCell id="ama2miM17LIpOyO-21Nn-15" value="Description" style="shape=partialRectangle;connectable=0;fillColor=none;top=0;left=0;bottom=0;right=0;align=left;spacingLeft=6;overflow=hidden;whiteSpace=wrap;html=1;labelBackgroundColor=#FFFFFF;strokeColor=none;fontSize=15;" parent="1" vertex="1">
          <mxGeometry x="1595.5" y="1422" width="150" height="30" as="geometry">
            <mxRectangle width="150" height="30" as="alternateBounds" />
          </mxGeometry>
        </mxCell>
        <mxCell id="ama2miM17LIpOyO-21Nn-16" value="" style="endArrow=none;html=1;rounded=0;fontFamily=Helvetica;fontSize=15;fontColor=default;horizontal=0;labelBackgroundColor=#FFFFFF;strokeColor=none;" parent="1" edge="1">
          <mxGeometry width="50" height="50" relative="1" as="geometry">
            <mxPoint x="1874" y="1570" as="sourcePoint" />
            <mxPoint x="2054" y="1570" as="targetPoint" />
          </mxGeometry>
        </mxCell>
        <mxCell id="ama2miM17LIpOyO-21Nn-17" value="" style="endArrow=none;html=1;rounded=0;fontFamily=Helvetica;fontSize=15;fontColor=default;horizontal=0;labelBackgroundColor=#FFFFFF;strokeColor=none;" parent="1" edge="1">
          <mxGeometry width="50" height="50" relative="1" as="geometry">
            <mxPoint x="2054" y="1530" as="sourcePoint" />
            <mxPoint x="2054" y="1570" as="targetPoint" />
          </mxGeometry>
        </mxCell>
        <mxCell id="ama2miM17LIpOyO-21Nn-18" value="" style="endArrow=none;html=1;rounded=0;fontFamily=Helvetica;fontSize=15;fontColor=default;horizontal=0;labelBackgroundColor=#FFFFFF;strokeColor=none;" parent="1" edge="1">
          <mxGeometry width="50" height="50" relative="1" as="geometry">
            <mxPoint x="1665.5" y="1546" as="sourcePoint" />
            <mxPoint x="1665.5" y="1587" as="targetPoint" />
          </mxGeometry>
        </mxCell>
        <mxCell id="ama2miM17LIpOyO-21Nn-19" value="" style="endArrow=none;html=1;rounded=0;fontFamily=Helvetica;fontSize=15;fontColor=default;horizontal=0;labelBackgroundColor=#FFFFFF;strokeColor=none;" parent="1" edge="1">
          <mxGeometry width="50" height="50" relative="1" as="geometry">
            <mxPoint x="1695.5" y="1547" as="sourcePoint" />
            <mxPoint x="1695.5" y="1587" as="targetPoint" />
          </mxGeometry>
        </mxCell>
        <mxCell id="ama2miM17LIpOyO-21Nn-20" value="&lt;font style=&quot;font-size: 20px;&quot;&gt;Transcation&lt;/font&gt;" style="shape=table;startSize=30;container=1;collapsible=1;childLayout=tableLayout;fixedRows=1;rowLines=0;fontStyle=1;align=center;resizeLast=1;html=1;labelBackgroundColor=#FFFFFF;swimlaneFillColor=default;fontSize=15;fillColor=#fa6800;fontColor=#000000;strokeColor=#C73500;" parent="1" vertex="1">
          <mxGeometry x="2041.5" y="1249" width="240" height="330" as="geometry" />
        </mxCell>
        <mxCell id="ama2miM17LIpOyO-21Nn-21" value="" style="shape=tableRow;horizontal=0;startSize=0;swimlaneHead=0;swimlaneBody=0;fillColor=none;collapsible=0;dropTarget=0;points=[[0,0.5],[1,0.5]];portConstraint=eastwest;top=0;left=0;right=0;bottom=1;labelBackgroundColor=#FFFFFF;fontSize=15;" parent="ama2miM17LIpOyO-21Nn-20" vertex="1">
          <mxGeometry y="30" width="240" height="32" as="geometry" />
        </mxCell>
        <mxCell id="ama2miM17LIpOyO-21Nn-22" value="PK" style="shape=partialRectangle;connectable=0;fillColor=none;top=0;left=0;bottom=0;right=0;fontStyle=1;overflow=hidden;whiteSpace=wrap;html=1;labelBackgroundColor=#FFFFFF;fontSize=15;" parent="ama2miM17LIpOyO-21Nn-21" vertex="1">
          <mxGeometry width="30" height="32" as="geometry">
            <mxRectangle width="30" height="32" as="alternateBounds" />
          </mxGeometry>
        </mxCell>
        <mxCell id="ama2miM17LIpOyO-21Nn-23" value="&lt;font style=&quot;font-size: 16px;&quot;&gt;Transcation_ID&lt;/font&gt;" style="shape=partialRectangle;connectable=0;fillColor=none;top=0;left=0;bottom=0;right=0;align=left;spacingLeft=6;fontStyle=5;overflow=hidden;whiteSpace=wrap;html=1;labelBackgroundColor=#FFFFFF;fontSize=15;" parent="ama2miM17LIpOyO-21Nn-21" vertex="1">
          <mxGeometry x="30" width="210" height="32" as="geometry">
            <mxRectangle width="210" height="32" as="alternateBounds" />
          </mxGeometry>
        </mxCell>
        <mxCell id="ama2miM17LIpOyO-21Nn-24" value="" style="shape=tableRow;horizontal=0;startSize=0;swimlaneHead=0;swimlaneBody=0;fillColor=none;collapsible=0;dropTarget=0;points=[[0,0.5],[1,0.5]];portConstraint=eastwest;top=0;left=0;right=0;bottom=0;labelBackgroundColor=#FFFFFF;fontSize=15;" parent="ama2miM17LIpOyO-21Nn-20" vertex="1">
          <mxGeometry y="62" width="240" height="30" as="geometry" />
        </mxCell>
        <mxCell id="ama2miM17LIpOyO-21Nn-25" value="&lt;b&gt;FK1&lt;/b&gt;" style="shape=partialRectangle;connectable=0;fillColor=none;top=0;left=0;bottom=0;right=0;editable=1;overflow=hidden;whiteSpace=wrap;html=1;labelBackgroundColor=#FFFFFF;fontSize=15;" parent="ama2miM17LIpOyO-21Nn-24" vertex="1">
          <mxGeometry width="30" height="30" as="geometry">
            <mxRectangle width="30" height="30" as="alternateBounds" />
          </mxGeometry>
        </mxCell>
        <mxCell id="ama2miM17LIpOyO-21Nn-26" value="Faculty-id" style="shape=partialRectangle;connectable=0;fillColor=none;top=0;left=0;bottom=0;right=0;align=left;spacingLeft=6;overflow=hidden;whiteSpace=wrap;html=1;labelBackgroundColor=#FFFFFF;fontSize=15;" parent="ama2miM17LIpOyO-21Nn-24" vertex="1">
          <mxGeometry x="30" width="210" height="30" as="geometry">
            <mxRectangle width="210" height="30" as="alternateBounds" />
          </mxGeometry>
        </mxCell>
        <mxCell id="ama2miM17LIpOyO-21Nn-27" value="" style="shape=tableRow;horizontal=0;startSize=0;swimlaneHead=0;swimlaneBody=0;fillColor=none;collapsible=0;dropTarget=0;points=[[0,0.5],[1,0.5]];portConstraint=eastwest;top=0;left=0;right=0;bottom=0;labelBackgroundColor=#FFFFFF;fontSize=15;" parent="ama2miM17LIpOyO-21Nn-20" vertex="1">
          <mxGeometry y="92" width="240" height="30" as="geometry" />
        </mxCell>
        <mxCell id="ama2miM17LIpOyO-21Nn-28" value="&lt;b&gt;FK2&lt;/b&gt;" style="shape=partialRectangle;connectable=0;fillColor=none;top=0;left=0;bottom=0;right=0;editable=1;overflow=hidden;whiteSpace=wrap;html=1;labelBackgroundColor=#FFFFFF;fontSize=15;" parent="ama2miM17LIpOyO-21Nn-27" vertex="1">
          <mxGeometry width="30" height="30" as="geometry">
            <mxRectangle width="30" height="30" as="alternateBounds" />
          </mxGeometry>
        </mxCell>
        <mxCell id="ama2miM17LIpOyO-21Nn-29" value="Person_id" style="shape=partialRectangle;connectable=0;fillColor=none;top=0;left=0;bottom=0;right=0;align=left;spacingLeft=6;overflow=hidden;whiteSpace=wrap;html=1;labelBackgroundColor=#FFFFFF;fontSize=15;" parent="ama2miM17LIpOyO-21Nn-27" vertex="1">
          <mxGeometry x="30" width="210" height="30" as="geometry">
            <mxRectangle width="210" height="30" as="alternateBounds" />
          </mxGeometry>
        </mxCell>
        <mxCell id="ama2miM17LIpOyO-21Nn-30" value="" style="shape=tableRow;horizontal=0;startSize=0;swimlaneHead=0;swimlaneBody=0;fillColor=none;collapsible=0;dropTarget=0;points=[[0,0.5],[1,0.5]];portConstraint=eastwest;top=0;left=0;right=0;bottom=0;labelBackgroundColor=#FFFFFF;fontSize=15;" parent="ama2miM17LIpOyO-21Nn-20" vertex="1">
          <mxGeometry y="122" width="240" height="28" as="geometry" />
        </mxCell>
        <mxCell id="ama2miM17LIpOyO-21Nn-31" value="&lt;b&gt;FK3&lt;/b&gt;" style="shape=partialRectangle;connectable=0;fillColor=none;top=0;left=0;bottom=0;right=0;editable=1;overflow=hidden;whiteSpace=wrap;html=1;labelBackgroundColor=#FFFFFF;fontSize=15;" parent="ama2miM17LIpOyO-21Nn-30" vertex="1">
          <mxGeometry width="30" height="28" as="geometry">
            <mxRectangle width="30" height="28" as="alternateBounds" />
          </mxGeometry>
        </mxCell>
        <mxCell id="ama2miM17LIpOyO-21Nn-32" value="book_id" style="shape=partialRectangle;connectable=0;fillColor=none;top=0;left=0;bottom=0;right=0;align=left;spacingLeft=6;overflow=hidden;whiteSpace=wrap;html=1;labelBackgroundColor=#FFFFFF;fontSize=15;" parent="ama2miM17LIpOyO-21Nn-30" vertex="1">
          <mxGeometry x="30" width="210" height="28" as="geometry">
            <mxRectangle width="210" height="28" as="alternateBounds" />
          </mxGeometry>
        </mxCell>
        <mxCell id="ama2miM17LIpOyO-21Nn-33" value="Issu_date" style="text;html=1;align=center;verticalAlign=middle;resizable=0;points=[];autosize=1;strokeColor=none;fillColor=none;fontFamily=Helvetica;fontSize=15;fontColor=default;horizontal=0;rotation=90;labelBackgroundColor=#FFFFFF;" parent="1" vertex="1">
          <mxGeometry x="2100" y="1374" width="40" height="80" as="geometry" />
        </mxCell>
        <mxCell id="ama2miM17LIpOyO-21Nn-34" value="Return_date" style="text;html=1;align=center;verticalAlign=middle;resizable=0;points=[];autosize=1;strokeColor=none;fillColor=none;fontFamily=Helvetica;fontSize=15;fontColor=default;horizontal=0;rotation=90;labelBackgroundColor=#FFFFFF;" parent="1" vertex="1">
          <mxGeometry x="2105" y="1387" width="40" height="100" as="geometry" />
        </mxCell>
        <mxCell id="ama2miM17LIpOyO-21Nn-35" value="&lt;font style=&quot;font-size: 20px;&quot;&gt;Faculty&lt;/font&gt;" style="shape=table;startSize=30;container=1;collapsible=1;childLayout=tableLayout;fixedRows=1;rowLines=0;fontStyle=1;align=center;resizeLast=1;html=1;labelBackgroundColor=#FFFFFF;swimlaneFillColor=default;strokeColor=#C73500;fontSize=15;fillColor=#fa6800;fontColor=#000000;" parent="1" vertex="1">
          <mxGeometry x="2041.5" y="1714.63" width="227" height="256.75" as="geometry" />
        </mxCell>
        <mxCell id="ama2miM17LIpOyO-21Nn-36" value="" style="shape=tableRow;horizontal=0;startSize=0;swimlaneHead=0;swimlaneBody=0;fillColor=none;collapsible=0;dropTarget=0;points=[[0,0.5],[1,0.5]];portConstraint=eastwest;top=0;left=0;right=0;bottom=1;labelBackgroundColor=#FFFFFF;swimlaneFillColor=default;strokeColor=default;fontSize=15;" parent="ama2miM17LIpOyO-21Nn-35" vertex="1">
          <mxGeometry y="30" width="227" height="32" as="geometry" />
        </mxCell>
        <mxCell id="ama2miM17LIpOyO-21Nn-37" value="PK" style="shape=partialRectangle;connectable=0;fillColor=none;top=0;left=0;bottom=0;right=0;fontStyle=1;overflow=hidden;whiteSpace=wrap;html=1;labelBackgroundColor=#FFFFFF;swimlaneFillColor=default;strokeColor=default;fontSize=15;" parent="ama2miM17LIpOyO-21Nn-36" vertex="1">
          <mxGeometry width="30" height="32" as="geometry">
            <mxRectangle width="30" height="32" as="alternateBounds" />
          </mxGeometry>
        </mxCell>
        <mxCell id="ama2miM17LIpOyO-21Nn-38" value="&lt;font style=&quot;font-size: 16px;&quot;&gt;Faculty_id&lt;/font&gt;" style="shape=partialRectangle;connectable=0;fillColor=none;top=0;left=0;bottom=0;right=0;align=left;spacingLeft=6;fontStyle=5;overflow=hidden;whiteSpace=wrap;html=1;labelBackgroundColor=#FFFFFF;swimlaneFillColor=default;strokeColor=default;fontSize=15;" parent="ama2miM17LIpOyO-21Nn-36" vertex="1">
          <mxGeometry x="30" width="197" height="32" as="geometry">
            <mxRectangle width="197" height="32" as="alternateBounds" />
          </mxGeometry>
        </mxCell>
        <mxCell id="ama2miM17LIpOyO-21Nn-39" value="" style="shape=tableRow;horizontal=0;startSize=0;swimlaneHead=0;swimlaneBody=0;fillColor=none;collapsible=0;dropTarget=0;points=[[0,0.5],[1,0.5]];portConstraint=eastwest;top=0;left=0;right=0;bottom=0;labelBackgroundColor=#FFFFFF;swimlaneFillColor=default;strokeColor=default;fontSize=15;" parent="ama2miM17LIpOyO-21Nn-35" vertex="1">
          <mxGeometry y="62" width="227" height="30" as="geometry" />
        </mxCell>
        <mxCell id="ama2miM17LIpOyO-21Nn-40" value="" style="shape=partialRectangle;connectable=0;fillColor=none;top=0;left=0;bottom=0;right=0;editable=1;overflow=hidden;whiteSpace=wrap;html=1;labelBackgroundColor=#FFFFFF;swimlaneFillColor=default;strokeColor=default;fontSize=15;" parent="ama2miM17LIpOyO-21Nn-39" vertex="1">
          <mxGeometry width="30" height="30" as="geometry">
            <mxRectangle width="30" height="30" as="alternateBounds" />
          </mxGeometry>
        </mxCell>
        <mxCell id="ama2miM17LIpOyO-21Nn-41" value="full name" style="shape=partialRectangle;connectable=0;fillColor=none;top=0;left=0;bottom=0;right=0;align=left;spacingLeft=6;overflow=hidden;whiteSpace=wrap;html=1;labelBackgroundColor=#FFFFFF;swimlaneFillColor=default;strokeColor=default;fontSize=15;" parent="ama2miM17LIpOyO-21Nn-39" vertex="1">
          <mxGeometry x="30" width="197" height="30" as="geometry">
            <mxRectangle width="197" height="30" as="alternateBounds" />
          </mxGeometry>
        </mxCell>
        <mxCell id="ama2miM17LIpOyO-21Nn-42" value="" style="shape=tableRow;horizontal=0;startSize=0;swimlaneHead=0;swimlaneBody=0;fillColor=none;collapsible=0;dropTarget=0;points=[[0,0.5],[1,0.5]];portConstraint=eastwest;top=0;left=0;right=0;bottom=0;labelBackgroundColor=#FFFFFF;swimlaneFillColor=default;strokeColor=default;fontSize=15;" parent="ama2miM17LIpOyO-21Nn-35" vertex="1">
          <mxGeometry y="92" width="227" height="30" as="geometry" />
        </mxCell>
        <mxCell id="ama2miM17LIpOyO-21Nn-43" value="" style="shape=partialRectangle;connectable=0;fillColor=none;top=0;left=0;bottom=0;right=0;editable=1;overflow=hidden;whiteSpace=wrap;html=1;labelBackgroundColor=#FFFFFF;swimlaneFillColor=default;strokeColor=default;fontSize=15;" parent="ama2miM17LIpOyO-21Nn-42" vertex="1">
          <mxGeometry width="30" height="30" as="geometry">
            <mxRectangle width="30" height="30" as="alternateBounds" />
          </mxGeometry>
        </mxCell>
        <mxCell id="ama2miM17LIpOyO-21Nn-44" value="F/Name" style="shape=partialRectangle;connectable=0;fillColor=none;top=0;left=0;bottom=0;right=0;align=left;spacingLeft=6;overflow=hidden;whiteSpace=wrap;html=1;labelBackgroundColor=#FFFFFF;swimlaneFillColor=default;strokeColor=default;fontSize=15;" parent="ama2miM17LIpOyO-21Nn-42" vertex="1">
          <mxGeometry x="30" width="197" height="30" as="geometry">
            <mxRectangle width="197" height="30" as="alternateBounds" />
          </mxGeometry>
        </mxCell>
        <mxCell id="ama2miM17LIpOyO-21Nn-45" value="" style="shape=tableRow;horizontal=0;startSize=0;swimlaneHead=0;swimlaneBody=0;fillColor=none;collapsible=0;dropTarget=0;points=[[0,0.5],[1,0.5]];portConstraint=eastwest;top=0;left=0;right=0;bottom=0;labelBackgroundColor=#FFFFFF;swimlaneFillColor=default;strokeColor=default;fontSize=15;" parent="ama2miM17LIpOyO-21Nn-35" vertex="1">
          <mxGeometry y="122" width="227" height="25" as="geometry" />
        </mxCell>
        <mxCell id="ama2miM17LIpOyO-21Nn-46" value="" style="shape=partialRectangle;connectable=0;fillColor=none;top=0;left=0;bottom=0;right=0;editable=1;overflow=hidden;whiteSpace=wrap;html=1;labelBackgroundColor=#FFFFFF;swimlaneFillColor=default;strokeColor=default;fontSize=15;" parent="ama2miM17LIpOyO-21Nn-45" vertex="1">
          <mxGeometry width="30" height="25" as="geometry">
            <mxRectangle width="30" height="25" as="alternateBounds" />
          </mxGeometry>
        </mxCell>
        <mxCell id="ama2miM17LIpOyO-21Nn-47" value="Rank" style="shape=partialRectangle;connectable=0;fillColor=none;top=0;left=0;bottom=0;right=0;align=left;spacingLeft=6;overflow=hidden;whiteSpace=wrap;html=1;labelBackgroundColor=#FFFFFF;swimlaneFillColor=default;strokeColor=default;fontSize=15;" parent="ama2miM17LIpOyO-21Nn-45" vertex="1">
          <mxGeometry x="30" width="197" height="25" as="geometry">
            <mxRectangle width="197" height="25" as="alternateBounds" />
          </mxGeometry>
        </mxCell>
        <mxCell id="ama2miM17LIpOyO-21Nn-48" value="Full address" style="shape=partialRectangle;connectable=0;fillColor=none;top=0;left=0;bottom=0;right=0;align=left;spacingLeft=6;overflow=hidden;whiteSpace=wrap;html=1;labelBackgroundColor=#FFFFFF;swimlaneFillColor=default;strokeColor=default;fontSize=15;" parent="1" vertex="1">
          <mxGeometry x="2070" y="1903.38" width="150" height="28" as="geometry">
            <mxRectangle width="150" height="28" as="alternateBounds" />
          </mxGeometry>
        </mxCell>
        <mxCell id="ama2miM17LIpOyO-21Nn-49" value="Accunt statue" style="shape=partialRectangle;connectable=0;fillColor=none;top=0;left=0;bottom=0;right=0;align=left;spacingLeft=6;overflow=hidden;whiteSpace=wrap;html=1;labelBackgroundColor=#FFFFFF;swimlaneFillColor=default;strokeColor=default;fontSize=15;" parent="1" vertex="1">
          <mxGeometry x="2070" y="1931.38" width="150" height="25.5" as="geometry">
            <mxRectangle width="150" height="28" as="alternateBounds" />
          </mxGeometry>
        </mxCell>
        <mxCell id="ama2miM17LIpOyO-21Nn-50" value="&lt;b&gt;&lt;font style=&quot;font-size: 38px;&quot;&gt;ER DIAGRAM FOR library management system&amp;nbsp;&lt;/font&gt;&lt;/b&gt;" style="rounded=0;whiteSpace=wrap;html=1;labelBackgroundColor=#FFFFFF;fontSize=15;fillColor=#fa6800;strokeColor=#C73500;fontColor=#000000;" parent="1" vertex="1">
          <mxGeometry x="2020" y="1140" width="892.5" height="60" as="geometry" />
        </mxCell>
        <mxCell id="ama2miM17LIpOyO-21Nn-51" value="&lt;font style=&quot;font-size: 20px;&quot;&gt;Return Details&lt;/font&gt;" style="shape=table;startSize=30;container=1;collapsible=1;childLayout=tableLayout;fixedRows=1;rowLines=0;fontStyle=1;align=center;resizeLast=1;html=1;labelBackgroundColor=#FFFFFF;swimlaneFillColor=default;fontSize=15;fillColor=#fa6800;fontColor=#000000;strokeColor=#C73500;" parent="1" vertex="1">
          <mxGeometry x="1561.5" y="1913" width="195" height="370.0000000000002" as="geometry" />
        </mxCell>
        <mxCell id="ama2miM17LIpOyO-21Nn-52" value="" style="shape=tableRow;horizontal=0;startSize=0;swimlaneHead=0;swimlaneBody=0;fillColor=none;collapsible=0;dropTarget=0;points=[[0,0.5],[1,0.5]];portConstraint=eastwest;top=0;left=0;right=0;bottom=1;labelBackgroundColor=#FFFFFF;swimlaneFillColor=default;fontSize=15;" parent="ama2miM17LIpOyO-21Nn-51" vertex="1">
          <mxGeometry y="30" width="195" height="32" as="geometry" />
        </mxCell>
        <mxCell id="ama2miM17LIpOyO-21Nn-53" value="PK" style="shape=partialRectangle;connectable=0;fillColor=none;top=0;left=0;bottom=0;right=0;fontStyle=1;overflow=hidden;whiteSpace=wrap;html=1;labelBackgroundColor=#FFFFFF;swimlaneFillColor=default;fontSize=15;" parent="ama2miM17LIpOyO-21Nn-52" vertex="1">
          <mxGeometry width="30.000000000000114" height="32" as="geometry">
            <mxRectangle width="30.000000000000114" height="32" as="alternateBounds" />
          </mxGeometry>
        </mxCell>
        <mxCell id="ama2miM17LIpOyO-21Nn-54" value="&lt;font style=&quot;font-size: 16px;&quot;&gt;Return_ID&lt;/font&gt;" style="shape=partialRectangle;connectable=0;fillColor=none;top=0;left=0;bottom=0;right=0;align=left;spacingLeft=6;fontStyle=5;overflow=hidden;whiteSpace=wrap;html=1;labelBackgroundColor=#FFFFFF;swimlaneFillColor=default;fontSize=15;" parent="ama2miM17LIpOyO-21Nn-52" vertex="1">
          <mxGeometry x="30.000000000000114" width="164.9999999999999" height="32" as="geometry">
            <mxRectangle width="164.9999999999999" height="32" as="alternateBounds" />
          </mxGeometry>
        </mxCell>
        <mxCell id="ama2miM17LIpOyO-21Nn-55" value="" style="shape=tableRow;horizontal=0;startSize=0;swimlaneHead=0;swimlaneBody=0;fillColor=none;collapsible=0;dropTarget=0;points=[[0,0.5],[1,0.5]];portConstraint=eastwest;top=0;left=0;right=0;bottom=0;labelBackgroundColor=#FFFFFF;swimlaneFillColor=default;fontSize=15;" parent="ama2miM17LIpOyO-21Nn-51" vertex="1">
          <mxGeometry y="62" width="195" height="28" as="geometry" />
        </mxCell>
        <mxCell id="ama2miM17LIpOyO-21Nn-56" value="" style="shape=partialRectangle;connectable=0;fillColor=none;top=0;left=0;bottom=0;right=0;editable=1;overflow=hidden;whiteSpace=wrap;html=1;labelBackgroundColor=#FFFFFF;swimlaneFillColor=default;fontSize=15;" parent="ama2miM17LIpOyO-21Nn-55" vertex="1">
          <mxGeometry width="30.000000000000114" height="28" as="geometry">
            <mxRectangle width="30.000000000000114" height="28" as="alternateBounds" />
          </mxGeometry>
        </mxCell>
        <mxCell id="ama2miM17LIpOyO-21Nn-57" value="Person_id" style="shape=partialRectangle;connectable=0;fillColor=none;top=0;left=0;bottom=0;right=0;align=left;spacingLeft=6;overflow=hidden;whiteSpace=wrap;html=1;labelBackgroundColor=#FFFFFF;swimlaneFillColor=default;fontSize=15;" parent="ama2miM17LIpOyO-21Nn-55" vertex="1">
          <mxGeometry x="30.000000000000114" width="164.9999999999999" height="28" as="geometry">
            <mxRectangle width="164.9999999999999" height="28" as="alternateBounds" />
          </mxGeometry>
        </mxCell>
        <mxCell id="ama2miM17LIpOyO-21Nn-58" value="" style="shape=tableRow;horizontal=0;startSize=0;swimlaneHead=0;swimlaneBody=0;fillColor=none;collapsible=0;dropTarget=0;points=[[0,0.5],[1,0.5]];portConstraint=eastwest;top=0;left=0;right=0;bottom=0;labelBackgroundColor=#FFFFFF;swimlaneFillColor=default;fontSize=15;" parent="ama2miM17LIpOyO-21Nn-51" vertex="1">
          <mxGeometry y="90" width="195" height="30" as="geometry" />
        </mxCell>
        <mxCell id="ama2miM17LIpOyO-21Nn-59" value="FK2" style="shape=partialRectangle;connectable=0;fillColor=none;top=0;left=0;bottom=0;right=0;editable=1;overflow=hidden;whiteSpace=wrap;html=1;labelBackgroundColor=#FFFFFF;swimlaneFillColor=default;fontSize=15;" parent="ama2miM17LIpOyO-21Nn-58" vertex="1">
          <mxGeometry width="30.000000000000114" height="30" as="geometry">
            <mxRectangle width="30.000000000000114" height="30" as="alternateBounds" />
          </mxGeometry>
        </mxCell>
        <mxCell id="ama2miM17LIpOyO-21Nn-60" value="Book_id" style="shape=partialRectangle;connectable=0;fillColor=none;top=0;left=0;bottom=0;right=0;align=left;spacingLeft=6;overflow=hidden;whiteSpace=wrap;html=1;labelBackgroundColor=#FFFFFF;swimlaneFillColor=default;fontSize=15;" parent="ama2miM17LIpOyO-21Nn-58" vertex="1">
          <mxGeometry x="30.000000000000114" width="164.9999999999999" height="30" as="geometry">
            <mxRectangle width="164.9999999999999" height="30" as="alternateBounds" />
          </mxGeometry>
        </mxCell>
        <mxCell id="ama2miM17LIpOyO-21Nn-61" value="" style="shape=tableRow;horizontal=0;startSize=0;swimlaneHead=0;swimlaneBody=0;fillColor=none;collapsible=0;dropTarget=0;points=[[0,0.5],[1,0.5]];portConstraint=eastwest;top=0;left=0;right=0;bottom=0;labelBackgroundColor=#FFFFFF;swimlaneFillColor=default;fontSize=15;" parent="ama2miM17LIpOyO-21Nn-51" vertex="1">
          <mxGeometry y="120" width="195" height="30" as="geometry" />
        </mxCell>
        <mxCell id="ama2miM17LIpOyO-21Nn-62" value="FK3" style="shape=partialRectangle;connectable=0;fillColor=none;top=0;left=0;bottom=0;right=0;editable=1;overflow=hidden;whiteSpace=wrap;html=1;labelBackgroundColor=#FFFFFF;swimlaneFillColor=default;fontSize=15;" parent="ama2miM17LIpOyO-21Nn-61" vertex="1">
          <mxGeometry width="30.000000000000114" height="30" as="geometry">
            <mxRectangle width="30.000000000000114" height="30" as="alternateBounds" />
          </mxGeometry>
        </mxCell>
        <mxCell id="ama2miM17LIpOyO-21Nn-63" value="&lt;div&gt;ReceiveBy&lt;/div&gt;" style="shape=partialRectangle;connectable=0;fillColor=none;top=0;left=0;bottom=0;right=0;align=left;spacingLeft=6;overflow=hidden;whiteSpace=wrap;html=1;labelBackgroundColor=#FFFFFF;swimlaneFillColor=default;fontSize=15;" parent="ama2miM17LIpOyO-21Nn-61" vertex="1">
          <mxGeometry x="30.000000000000114" width="164.9999999999999" height="30" as="geometry">
            <mxRectangle width="164.9999999999999" height="30" as="alternateBounds" />
          </mxGeometry>
        </mxCell>
        <mxCell id="ama2miM17LIpOyO-21Nn-64" value="" style="shape=tableRow;horizontal=0;startSize=0;swimlaneHead=0;swimlaneBody=0;fillColor=none;collapsible=0;dropTarget=0;points=[[0,0.5],[1,0.5]];portConstraint=eastwest;top=0;left=0;right=0;bottom=0;labelBackgroundColor=#FFFFFF;swimlaneFillColor=default;fontSize=15;" parent="ama2miM17LIpOyO-21Nn-51" vertex="1">
          <mxGeometry y="150" width="195" height="30" as="geometry" />
        </mxCell>
        <mxCell id="ama2miM17LIpOyO-21Nn-65" value="" style="shape=partialRectangle;connectable=0;fillColor=none;top=0;left=0;bottom=0;right=0;editable=1;overflow=hidden;whiteSpace=wrap;html=1;labelBackgroundColor=#FFFFFF;swimlaneFillColor=default;fontSize=15;" parent="ama2miM17LIpOyO-21Nn-64" vertex="1">
          <mxGeometry width="30.000000000000114" height="30" as="geometry">
            <mxRectangle width="30.000000000000114" height="30" as="alternateBounds" />
          </mxGeometry>
        </mxCell>
        <mxCell id="ama2miM17LIpOyO-21Nn-66" value="Issuedate&lt;div&gt;&lt;br&gt;&lt;/div&gt;" style="shape=partialRectangle;connectable=0;fillColor=none;top=0;left=0;bottom=0;right=0;align=left;spacingLeft=6;overflow=hidden;whiteSpace=wrap;html=1;labelBackgroundColor=#FFFFFF;swimlaneFillColor=default;fontSize=15;" parent="ama2miM17LIpOyO-21Nn-64" vertex="1">
          <mxGeometry x="30.000000000000114" width="164.9999999999999" height="30" as="geometry">
            <mxRectangle width="164.9999999999999" height="30" as="alternateBounds" />
          </mxGeometry>
        </mxCell>
        <mxCell id="3mJ2-X8jhUhgv_CpCuyT-2" value="" style="shape=tableRow;horizontal=0;startSize=0;swimlaneHead=0;swimlaneBody=0;fillColor=none;collapsible=0;dropTarget=0;points=[[0,0.5],[1,0.5]];portConstraint=eastwest;top=0;left=0;right=0;bottom=0;labelBackgroundColor=#FFFFFF;swimlaneFillColor=default;fontSize=15;" parent="ama2miM17LIpOyO-21Nn-51" vertex="1">
          <mxGeometry y="180" width="195" height="30" as="geometry" />
        </mxCell>
        <mxCell id="3mJ2-X8jhUhgv_CpCuyT-3" value="" style="shape=partialRectangle;connectable=0;fillColor=none;top=0;left=0;bottom=0;right=0;editable=1;overflow=hidden;whiteSpace=wrap;html=1;labelBackgroundColor=#FFFFFF;swimlaneFillColor=default;fontSize=15;" parent="3mJ2-X8jhUhgv_CpCuyT-2" vertex="1">
          <mxGeometry width="30.000000000000114" height="30" as="geometry">
            <mxRectangle width="30.000000000000114" height="30" as="alternateBounds" />
          </mxGeometry>
        </mxCell>
        <mxCell id="3mJ2-X8jhUhgv_CpCuyT-4" value="Issuedate&lt;div&gt;&lt;br&gt;&lt;/div&gt;" style="shape=partialRectangle;connectable=0;fillColor=none;top=0;left=0;bottom=0;right=0;align=left;spacingLeft=6;overflow=hidden;whiteSpace=wrap;html=1;labelBackgroundColor=#FFFFFF;swimlaneFillColor=default;fontSize=15;" parent="3mJ2-X8jhUhgv_CpCuyT-2" vertex="1">
          <mxGeometry x="30.000000000000114" width="164.9999999999999" height="30" as="geometry">
            <mxRectangle width="164.9999999999999" height="30" as="alternateBounds" />
          </mxGeometry>
        </mxCell>
        <mxCell id="ama2miM17LIpOyO-21Nn-67" value="" style="shape=tableRow;horizontal=0;startSize=0;swimlaneHead=0;swimlaneBody=0;fillColor=none;collapsible=0;dropTarget=0;points=[[0,0.5],[1,0.5]];portConstraint=eastwest;top=0;left=0;right=0;bottom=0;labelBackgroundColor=#FFFFFF;swimlaneFillColor=default;fontSize=15;" parent="1" vertex="1">
          <mxGeometry x="1852.5" y="1961" width="180" height="20" as="geometry" />
        </mxCell>
        <mxCell id="ama2miM17LIpOyO-21Nn-68" value="" style="edgeStyle=entityRelationEdgeStyle;fontSize=20;html=1;endArrow=ERzeroToMany;startArrow=none;rounded=0;labelBackgroundColor=light-dark(#171616, #121212);fontStyle=1;verticalAlign=middle;fontFamily=Verdana;labelBorderColor=default;textShadow=0;startFill=0;endSize=8;startSize=8;targetPerimeterSpacing=2;sourcePerimeterSpacing=2;strokeColor=light-dark(#0a0a0a, #ff9164);jumpStyle=line;strokeWidth=2;exitX=0.984;exitY=0.831;exitDx=0;exitDy=0;exitPerimeter=0;entryX=-0.014;entryY=0.681;entryDx=0;entryDy=0;entryPerimeter=0;" parent="1" source="ama2miM17LIpOyO-21Nn-85" target="ama2miM17LIpOyO-21Nn-104" edge="1">
          <mxGeometry width="100" height="100" relative="1" as="geometry">
            <mxPoint x="2734" y="1673" as="sourcePoint" />
            <mxPoint x="2834" y="1763" as="targetPoint" />
            <Array as="points">
              <mxPoint x="2419.33" y="1884.1" />
            </Array>
          </mxGeometry>
        </mxCell>
        <mxCell id="ama2miM17LIpOyO-21Nn-71" value="&lt;font style=&quot;font-size: 20px;&quot;&gt;&amp;nbsp;Issue Details&amp;nbsp;&lt;/font&gt;" style="shape=table;startSize=30;container=1;collapsible=1;childLayout=tableLayout;fixedRows=1;rowLines=0;fontStyle=1;align=center;resizeLast=1;html=1;labelBackgroundColor=#FFFFFF;swimlaneFillColor=default;fontSize=15;fillColor=#fa6800;fontColor=#000000;strokeColor=#C73500;" parent="1" vertex="1">
          <mxGeometry x="1561.5" y="1578" width="204" height="277" as="geometry" />
        </mxCell>
        <mxCell id="ama2miM17LIpOyO-21Nn-72" value="" style="shape=tableRow;horizontal=0;startSize=0;swimlaneHead=0;swimlaneBody=0;fillColor=none;collapsible=0;dropTarget=0;points=[[0,0.5],[1,0.5]];portConstraint=eastwest;top=0;left=0;right=0;bottom=1;labelBackgroundColor=#FFFFFF;fontSize=15;" parent="ama2miM17LIpOyO-21Nn-71" vertex="1">
          <mxGeometry y="30" width="204" height="32" as="geometry" />
        </mxCell>
        <mxCell id="ama2miM17LIpOyO-21Nn-73" value="PK" style="shape=partialRectangle;connectable=0;fillColor=none;top=0;left=0;bottom=0;right=0;fontStyle=1;overflow=hidden;whiteSpace=wrap;html=1;labelBackgroundColor=#FFFFFF;fontSize=15;" parent="ama2miM17LIpOyO-21Nn-72" vertex="1">
          <mxGeometry width="30" height="32" as="geometry">
            <mxRectangle width="30" height="32" as="alternateBounds" />
          </mxGeometry>
        </mxCell>
        <mxCell id="ama2miM17LIpOyO-21Nn-74" value="&lt;font style=&quot;font-size: 16px;&quot;&gt;Issue_id&lt;/font&gt;" style="shape=partialRectangle;connectable=0;fillColor=none;top=0;left=0;bottom=0;right=0;align=left;spacingLeft=6;fontStyle=5;overflow=hidden;whiteSpace=wrap;html=1;labelBackgroundColor=#FFFFFF;fontSize=15;" parent="ama2miM17LIpOyO-21Nn-72" vertex="1">
          <mxGeometry x="30" width="174" height="32" as="geometry">
            <mxRectangle width="174" height="32" as="alternateBounds" />
          </mxGeometry>
        </mxCell>
        <mxCell id="ama2miM17LIpOyO-21Nn-75" value="" style="shape=tableRow;horizontal=0;startSize=0;swimlaneHead=0;swimlaneBody=0;fillColor=none;collapsible=0;dropTarget=0;points=[[0,0.5],[1,0.5]];portConstraint=eastwest;top=0;left=0;right=0;bottom=0;labelBackgroundColor=#FFFFFF;fontSize=15;" parent="ama2miM17LIpOyO-21Nn-71" vertex="1">
          <mxGeometry y="62" width="204" height="30" as="geometry" />
        </mxCell>
        <mxCell id="ama2miM17LIpOyO-21Nn-76" value="&lt;b&gt;FK1&lt;/b&gt;" style="shape=partialRectangle;connectable=0;fillColor=none;top=0;left=0;bottom=0;right=0;editable=1;overflow=hidden;whiteSpace=wrap;html=1;labelBackgroundColor=#FFFFFF;fontSize=15;" parent="ama2miM17LIpOyO-21Nn-75" vertex="1">
          <mxGeometry width="30" height="30" as="geometry">
            <mxRectangle width="30" height="30" as="alternateBounds" />
          </mxGeometry>
        </mxCell>
        <mxCell id="ama2miM17LIpOyO-21Nn-77" value="Person_id" style="shape=partialRectangle;connectable=0;fillColor=none;top=0;left=0;bottom=0;right=0;align=left;spacingLeft=6;overflow=hidden;whiteSpace=wrap;html=1;labelBackgroundColor=#FFFFFF;fontSize=15;" parent="ama2miM17LIpOyO-21Nn-75" vertex="1">
          <mxGeometry x="30" width="174" height="30" as="geometry">
            <mxRectangle width="174" height="30" as="alternateBounds" />
          </mxGeometry>
        </mxCell>
        <mxCell id="ama2miM17LIpOyO-21Nn-78" value="" style="shape=tableRow;horizontal=0;startSize=0;swimlaneHead=0;swimlaneBody=0;fillColor=none;collapsible=0;dropTarget=0;points=[[0,0.5],[1,0.5]];portConstraint=eastwest;top=0;left=0;right=0;bottom=0;labelBackgroundColor=#FFFFFF;fontSize=15;" parent="ama2miM17LIpOyO-21Nn-71" vertex="1">
          <mxGeometry y="92" width="204" height="30" as="geometry" />
        </mxCell>
        <mxCell id="ama2miM17LIpOyO-21Nn-79" value="&lt;b&gt;FK2&lt;/b&gt;" style="shape=partialRectangle;connectable=0;fillColor=none;top=0;left=0;bottom=0;right=0;editable=1;overflow=hidden;whiteSpace=wrap;html=1;labelBackgroundColor=#FFFFFF;fontSize=15;" parent="ama2miM17LIpOyO-21Nn-78" vertex="1">
          <mxGeometry width="30" height="30" as="geometry">
            <mxRectangle width="30" height="30" as="alternateBounds" />
          </mxGeometry>
        </mxCell>
        <mxCell id="ama2miM17LIpOyO-21Nn-80" value="IssueBy" style="shape=partialRectangle;connectable=0;fillColor=none;top=0;left=0;bottom=0;right=0;align=left;spacingLeft=6;overflow=hidden;whiteSpace=wrap;html=1;labelBackgroundColor=#FFFFFF;fontSize=15;" parent="ama2miM17LIpOyO-21Nn-78" vertex="1">
          <mxGeometry x="30" width="174" height="30" as="geometry">
            <mxRectangle width="174" height="30" as="alternateBounds" />
          </mxGeometry>
        </mxCell>
        <mxCell id="ama2miM17LIpOyO-21Nn-81" value="Issu_date" style="text;html=1;align=center;verticalAlign=middle;resizable=0;points=[];autosize=1;strokeColor=none;fillColor=none;fontFamily=Helvetica;fontSize=15;fontColor=default;horizontal=0;rotation=90;labelBackgroundColor=#FFFFFF;" parent="1" vertex="1">
          <mxGeometry x="1610" y="1731.5" width="40" height="80" as="geometry" />
        </mxCell>
        <mxCell id="ama2miM17LIpOyO-21Nn-82" value="Return_date" style="text;html=1;align=center;verticalAlign=middle;resizable=0;points=[];autosize=1;strokeColor=none;fillColor=none;fontFamily=Helvetica;fontSize=15;fontColor=default;horizontal=0;rotation=90;labelBackgroundColor=#FFFFFF;" parent="1" vertex="1">
          <mxGeometry x="1618" y="1755" width="40" height="100" as="geometry" />
        </mxCell>
        <mxCell id="ama2miM17LIpOyO-21Nn-83" value="Faculty" style="shape=partialRectangle;connectable=0;fillColor=none;top=0;left=0;bottom=0;right=0;align=left;spacingLeft=6;overflow=hidden;whiteSpace=wrap;html=1;labelBackgroundColor=#FFFFFF;fontSize=15;" parent="1" vertex="1">
          <mxGeometry x="1590.5" y="1731.5" width="178" height="30" as="geometry">
            <mxRectangle width="178" height="30" as="alternateBounds" />
          </mxGeometry>
        </mxCell>
        <mxCell id="ama2miM17LIpOyO-21Nn-84" value="&lt;font style=&quot;font-size: 20px;&quot;&gt;&amp;nbsp;Person&amp;nbsp;&lt;/font&gt;" style="shape=table;startSize=30;container=1;collapsible=1;childLayout=tableLayout;fixedRows=1;rowLines=0;fontStyle=1;align=center;resizeLast=1;html=1;labelBackgroundColor=#FFFFFF;swimlaneFillColor=default;fontSize=15;fillColor=#fa6800;fontColor=#000000;strokeColor=#C73500;" parent="1" vertex="1">
          <mxGeometry x="2512" y="1650" width="230" height="391" as="geometry" />
        </mxCell>
        <mxCell id="ama2miM17LIpOyO-21Nn-85" value="" style="shape=tableRow;horizontal=0;startSize=0;swimlaneHead=0;swimlaneBody=0;fillColor=none;collapsible=0;dropTarget=0;points=[[0,0.5],[1,0.5]];portConstraint=eastwest;top=0;left=0;right=0;bottom=1;labelBackgroundColor=#FFFFFF;fontSize=15;" parent="ama2miM17LIpOyO-21Nn-84" vertex="1">
          <mxGeometry y="30" width="230" height="32" as="geometry" />
        </mxCell>
        <mxCell id="ama2miM17LIpOyO-21Nn-86" value="PK" style="shape=partialRectangle;connectable=0;fillColor=none;top=0;left=0;bottom=0;right=0;fontStyle=1;overflow=hidden;whiteSpace=wrap;html=1;labelBackgroundColor=#FFFFFF;fontSize=15;" parent="ama2miM17LIpOyO-21Nn-85" vertex="1">
          <mxGeometry width="30" height="32" as="geometry">
            <mxRectangle width="30" height="32" as="alternateBounds" />
          </mxGeometry>
        </mxCell>
        <mxCell id="ama2miM17LIpOyO-21Nn-87" value="Person_id" style="shape=partialRectangle;connectable=0;fillColor=none;top=0;left=0;bottom=0;right=0;align=left;spacingLeft=6;fontStyle=5;overflow=hidden;whiteSpace=wrap;html=1;labelBackgroundColor=#FFFFFF;fontSize=15;" parent="ama2miM17LIpOyO-21Nn-85" vertex="1">
          <mxGeometry x="30" width="200" height="32" as="geometry">
            <mxRectangle width="200" height="32" as="alternateBounds" />
          </mxGeometry>
        </mxCell>
        <mxCell id="ama2miM17LIpOyO-21Nn-88" value="" style="shape=tableRow;horizontal=0;startSize=0;swimlaneHead=0;swimlaneBody=0;fillColor=none;collapsible=0;dropTarget=0;points=[[0,0.5],[1,0.5]];portConstraint=eastwest;top=0;left=0;right=0;bottom=0;labelBackgroundColor=#FFFFFF;fontSize=15;" parent="ama2miM17LIpOyO-21Nn-84" vertex="1">
          <mxGeometry y="62" width="230" height="30" as="geometry" />
        </mxCell>
        <mxCell id="ama2miM17LIpOyO-21Nn-89" value="&lt;b&gt;FK1&lt;/b&gt;" style="shape=partialRectangle;connectable=0;fillColor=none;top=0;left=0;bottom=0;right=0;editable=1;overflow=hidden;whiteSpace=wrap;html=1;labelBackgroundColor=#FFFFFF;fontSize=15;" parent="ama2miM17LIpOyO-21Nn-88" vertex="1">
          <mxGeometry width="30" height="30" as="geometry">
            <mxRectangle width="30" height="30" as="alternateBounds" />
          </mxGeometry>
        </mxCell>
        <mxCell id="ama2miM17LIpOyO-21Nn-90" value="Faculty_id" style="shape=partialRectangle;connectable=0;fillColor=none;top=0;left=0;bottom=0;right=0;align=left;spacingLeft=6;overflow=hidden;whiteSpace=wrap;html=1;labelBackgroundColor=#FFFFFF;fontSize=15;" parent="ama2miM17LIpOyO-21Nn-88" vertex="1">
          <mxGeometry x="30" width="200" height="30" as="geometry">
            <mxRectangle width="200" height="30" as="alternateBounds" />
          </mxGeometry>
        </mxCell>
        <mxCell id="ama2miM17LIpOyO-21Nn-91" value="" style="shape=tableRow;horizontal=0;startSize=0;swimlaneHead=0;swimlaneBody=0;fillColor=none;collapsible=0;dropTarget=0;points=[[0,0.5],[1,0.5]];portConstraint=eastwest;top=0;left=0;right=0;bottom=0;labelBackgroundColor=#FFFFFF;fontSize=15;" parent="ama2miM17LIpOyO-21Nn-84" vertex="1">
          <mxGeometry y="92" width="230" height="28" as="geometry" />
        </mxCell>
        <mxCell id="ama2miM17LIpOyO-21Nn-92" value="&lt;b&gt;FK2&lt;/b&gt;" style="shape=partialRectangle;connectable=0;fillColor=none;top=0;left=0;bottom=0;right=0;editable=1;overflow=hidden;whiteSpace=wrap;html=1;labelBackgroundColor=#FFFFFF;fontSize=15;" parent="ama2miM17LIpOyO-21Nn-91" vertex="1">
          <mxGeometry width="30" height="28" as="geometry">
            <mxRectangle width="30" height="28" as="alternateBounds" />
          </mxGeometry>
        </mxCell>
        <mxCell id="ama2miM17LIpOyO-21Nn-93" value="Rank" style="shape=partialRectangle;connectable=0;fillColor=none;top=0;left=0;bottom=0;right=0;align=left;spacingLeft=6;overflow=hidden;whiteSpace=wrap;html=1;labelBackgroundColor=#FFFFFF;fontSize=15;" parent="ama2miM17LIpOyO-21Nn-91" vertex="1">
          <mxGeometry x="30" width="200" height="28" as="geometry">
            <mxRectangle width="200" height="28" as="alternateBounds" />
          </mxGeometry>
        </mxCell>
        <mxCell id="ama2miM17LIpOyO-21Nn-94" value="" style="shape=tableRow;horizontal=0;startSize=0;swimlaneHead=0;swimlaneBody=0;fillColor=none;collapsible=0;dropTarget=0;points=[[0,0.5],[1,0.5]];portConstraint=eastwest;top=0;left=0;right=0;bottom=0;labelBackgroundColor=#FFFFFF;fontSize=15;" parent="ama2miM17LIpOyO-21Nn-84" vertex="1">
          <mxGeometry y="120" width="230" height="28" as="geometry" />
        </mxCell>
        <mxCell id="ama2miM17LIpOyO-21Nn-95" value="&lt;b&gt;FK3&lt;/b&gt;" style="shape=partialRectangle;connectable=0;fillColor=none;top=0;left=0;bottom=0;right=0;editable=1;overflow=hidden;whiteSpace=wrap;html=1;labelBackgroundColor=#FFFFFF;fontSize=15;" parent="ama2miM17LIpOyO-21Nn-94" vertex="1">
          <mxGeometry width="30" height="28" as="geometry">
            <mxRectangle width="30" height="28" as="alternateBounds" />
          </mxGeometry>
        </mxCell>
        <mxCell id="ama2miM17LIpOyO-21Nn-96" value="Library_id" style="shape=partialRectangle;connectable=0;fillColor=none;top=0;left=0;bottom=0;right=0;align=left;spacingLeft=6;overflow=hidden;whiteSpace=wrap;html=1;labelBackgroundColor=#FFFFFF;fontSize=15;" parent="ama2miM17LIpOyO-21Nn-94" vertex="1">
          <mxGeometry x="30" width="200" height="28" as="geometry">
            <mxRectangle width="200" height="28" as="alternateBounds" />
          </mxGeometry>
        </mxCell>
        <mxCell id="ama2miM17LIpOyO-21Nn-97" value="Contact-Info" style="shape=partialRectangle;connectable=0;fillColor=none;top=0;left=0;bottom=0;right=0;align=left;spacingLeft=6;overflow=hidden;whiteSpace=wrap;html=1;labelBackgroundColor=#FFFFFF;fontSize=15;" parent="1" vertex="1">
          <mxGeometry x="2541" y="1880" width="178" height="28" as="geometry">
            <mxRectangle width="178" height="28" as="alternateBounds" />
          </mxGeometry>
        </mxCell>
        <mxCell id="ama2miM17LIpOyO-21Nn-98" value="Email" style="shape=partialRectangle;connectable=0;fillColor=none;top=0;left=0;bottom=0;right=0;align=left;spacingLeft=6;overflow=hidden;whiteSpace=wrap;html=1;labelBackgroundColor=#FFFFFF;fontSize=15;" parent="1" vertex="1">
          <mxGeometry x="2542" y="1909" width="178" height="28" as="geometry">
            <mxRectangle width="178" height="28" as="alternateBounds" />
          </mxGeometry>
        </mxCell>
        <mxCell id="ama2miM17LIpOyO-21Nn-99" value="DOB" style="shape=partialRectangle;connectable=0;fillColor=none;top=0;left=0;bottom=0;right=0;align=left;spacingLeft=6;overflow=hidden;whiteSpace=wrap;html=1;labelBackgroundColor=#FFFFFF;fontSize=15;" parent="1" vertex="1">
          <mxGeometry x="2542" y="1854" width="178" height="28" as="geometry">
            <mxRectangle width="178" height="28" as="alternateBounds" />
          </mxGeometry>
        </mxCell>
        <mxCell id="ama2miM17LIpOyO-21Nn-100" value="City" style="shape=partialRectangle;connectable=0;fillColor=none;top=0;left=0;bottom=0;right=0;align=left;spacingLeft=6;overflow=hidden;whiteSpace=wrap;html=1;labelBackgroundColor=#FFFFFF;fontSize=15;" parent="1" vertex="1">
          <mxGeometry x="2540" y="1939" width="178" height="28" as="geometry">
            <mxRectangle width="178" height="28" as="alternateBounds" />
          </mxGeometry>
        </mxCell>
        <mxCell id="ama2miM17LIpOyO-21Nn-101" value="Full Address" style="shape=partialRectangle;connectable=0;fillColor=none;top=0;left=0;bottom=0;right=0;align=left;spacingLeft=6;overflow=hidden;whiteSpace=wrap;html=1;labelBackgroundColor=#FFFFFF;fontSize=15;" parent="1" vertex="1">
          <mxGeometry x="2541" y="1968" width="178" height="28" as="geometry">
            <mxRectangle width="178" height="28" as="alternateBounds" />
          </mxGeometry>
        </mxCell>
        <mxCell id="ama2miM17LIpOyO-21Nn-102" value="Image" style="shape=partialRectangle;connectable=0;fillColor=none;top=0;left=0;bottom=0;right=0;align=left;spacingLeft=6;overflow=hidden;whiteSpace=wrap;html=1;labelBackgroundColor=#FFFFFF;fontSize=15;" parent="1" vertex="1">
          <mxGeometry x="2543" y="1998" width="178" height="28" as="geometry">
            <mxRectangle width="178" height="28" as="alternateBounds" />
          </mxGeometry>
        </mxCell>
        <mxCell id="ama2miM17LIpOyO-21Nn-103" value="&lt;font style=&quot;font-size: 20px;&quot;&gt;Book Details&amp;nbsp;&lt;/font&gt;" style="shape=table;startSize=30;container=1;collapsible=1;childLayout=tableLayout;fixedRows=1;rowLines=0;fontStyle=1;align=center;resizeLast=1;html=1;labelBackgroundColor=#FFFFFF;swimlaneFillColor=default;fontSize=15;fillColor=#fa6800;fontColor=#000000;strokeColor=#C73500;" parent="1" vertex="1">
          <mxGeometry x="3080" y="1673.63" width="230" height="380" as="geometry" />
        </mxCell>
        <mxCell id="ama2miM17LIpOyO-21Nn-104" value="" style="shape=tableRow;horizontal=0;startSize=0;swimlaneHead=0;swimlaneBody=0;fillColor=none;collapsible=0;dropTarget=0;points=[[0,0.5],[1,0.5]];portConstraint=eastwest;top=0;left=0;right=0;bottom=1;labelBackgroundColor=#FFFFFF;fontSize=15;" parent="ama2miM17LIpOyO-21Nn-103" vertex="1">
          <mxGeometry y="30" width="230" height="32" as="geometry" />
        </mxCell>
        <mxCell id="ama2miM17LIpOyO-21Nn-105" value="PK" style="shape=partialRectangle;connectable=0;fillColor=none;top=0;left=0;bottom=0;right=0;fontStyle=1;overflow=hidden;whiteSpace=wrap;html=1;labelBackgroundColor=#FFFFFF;fontSize=15;" parent="ama2miM17LIpOyO-21Nn-104" vertex="1">
          <mxGeometry width="30" height="32" as="geometry">
            <mxRectangle width="30" height="32" as="alternateBounds" />
          </mxGeometry>
        </mxCell>
        <mxCell id="ama2miM17LIpOyO-21Nn-106" value="&lt;font style=&quot;font-size: 17px;&quot;&gt;Book_id&lt;/font&gt;" style="shape=partialRectangle;connectable=0;fillColor=none;top=0;left=0;bottom=0;right=0;align=left;spacingLeft=6;fontStyle=5;overflow=hidden;whiteSpace=wrap;html=1;labelBackgroundColor=#FFFFFF;fontSize=15;" parent="ama2miM17LIpOyO-21Nn-104" vertex="1">
          <mxGeometry x="30" width="200" height="32" as="geometry">
            <mxRectangle width="200" height="32" as="alternateBounds" />
          </mxGeometry>
        </mxCell>
        <mxCell id="ama2miM17LIpOyO-21Nn-107" value="" style="shape=tableRow;horizontal=0;startSize=0;swimlaneHead=0;swimlaneBody=0;fillColor=none;collapsible=0;dropTarget=0;points=[[0,0.5],[1,0.5]];portConstraint=eastwest;top=0;left=0;right=0;bottom=0;labelBackgroundColor=#FFFFFF;fontSize=15;" parent="ama2miM17LIpOyO-21Nn-103" vertex="1">
          <mxGeometry y="62" width="230" height="30" as="geometry" />
        </mxCell>
        <mxCell id="ama2miM17LIpOyO-21Nn-108" value="FK1" style="shape=partialRectangle;connectable=0;fillColor=none;top=0;left=0;bottom=0;right=0;editable=1;overflow=hidden;whiteSpace=wrap;html=1;labelBackgroundColor=#FFFFFF;fontSize=15;" parent="ama2miM17LIpOyO-21Nn-107" vertex="1">
          <mxGeometry width="30" height="30" as="geometry">
            <mxRectangle width="30" height="30" as="alternateBounds" />
          </mxGeometry>
        </mxCell>
        <mxCell id="ama2miM17LIpOyO-21Nn-109" value="Library_id" style="shape=partialRectangle;connectable=0;fillColor=none;top=0;left=0;bottom=0;right=0;align=left;spacingLeft=6;overflow=hidden;whiteSpace=wrap;html=1;labelBackgroundColor=#FFFFFF;fontSize=15;" parent="ama2miM17LIpOyO-21Nn-107" vertex="1">
          <mxGeometry x="30" width="200" height="30" as="geometry">
            <mxRectangle width="200" height="30" as="alternateBounds" />
          </mxGeometry>
        </mxCell>
        <mxCell id="ama2miM17LIpOyO-21Nn-110" value="" style="shape=tableRow;horizontal=0;startSize=0;swimlaneHead=0;swimlaneBody=0;fillColor=none;collapsible=0;dropTarget=0;points=[[0,0.5],[1,0.5]];portConstraint=eastwest;top=0;left=0;right=0;bottom=0;labelBackgroundColor=#FFFFFF;fontSize=15;" parent="ama2miM17LIpOyO-21Nn-103" vertex="1">
          <mxGeometry y="92" width="230" height="28" as="geometry" />
        </mxCell>
        <mxCell id="ama2miM17LIpOyO-21Nn-111" value="FK2" style="shape=partialRectangle;connectable=0;fillColor=none;top=0;left=0;bottom=0;right=0;editable=1;overflow=hidden;whiteSpace=wrap;html=1;labelBackgroundColor=#FFFFFF;fontSize=15;" parent="ama2miM17LIpOyO-21Nn-110" vertex="1">
          <mxGeometry width="30" height="28" as="geometry">
            <mxRectangle width="30" height="28" as="alternateBounds" />
          </mxGeometry>
        </mxCell>
        <mxCell id="ama2miM17LIpOyO-21Nn-112" value="Categoty_id" style="shape=partialRectangle;connectable=0;fillColor=none;top=0;left=0;bottom=0;right=0;align=left;spacingLeft=6;overflow=hidden;whiteSpace=wrap;html=1;labelBackgroundColor=#FFFFFF;fontSize=15;" parent="ama2miM17LIpOyO-21Nn-110" vertex="1">
          <mxGeometry x="30" width="200" height="28" as="geometry">
            <mxRectangle width="200" height="28" as="alternateBounds" />
          </mxGeometry>
        </mxCell>
        <mxCell id="ama2miM17LIpOyO-21Nn-113" value="" style="shape=tableRow;horizontal=0;startSize=0;swimlaneHead=0;swimlaneBody=0;fillColor=none;collapsible=0;dropTarget=0;points=[[0,0.5],[1,0.5]];portConstraint=eastwest;top=0;left=0;right=0;bottom=0;labelBackgroundColor=#FFFFFF;fontSize=15;" parent="ama2miM17LIpOyO-21Nn-103" vertex="1">
          <mxGeometry y="120" width="230" height="28" as="geometry" />
        </mxCell>
        <mxCell id="ama2miM17LIpOyO-21Nn-114" value="" style="shape=partialRectangle;connectable=0;fillColor=none;top=0;left=0;bottom=0;right=0;editable=1;overflow=hidden;whiteSpace=wrap;html=1;labelBackgroundColor=#FFFFFF;fontSize=15;" parent="ama2miM17LIpOyO-21Nn-113" vertex="1">
          <mxGeometry width="30" height="28" as="geometry">
            <mxRectangle width="30" height="28" as="alternateBounds" />
          </mxGeometry>
        </mxCell>
        <mxCell id="ama2miM17LIpOyO-21Nn-115" value="Publisher name" style="shape=partialRectangle;connectable=0;fillColor=none;top=0;left=0;bottom=0;right=0;align=left;spacingLeft=6;overflow=hidden;whiteSpace=wrap;html=1;labelBackgroundColor=#FFFFFF;fontSize=15;" parent="ama2miM17LIpOyO-21Nn-113" vertex="1">
          <mxGeometry x="30" width="200" height="28" as="geometry">
            <mxRectangle width="200" height="28" as="alternateBounds" />
          </mxGeometry>
        </mxCell>
        <mxCell id="ama2miM17LIpOyO-21Nn-116" value="No of page" style="shape=partialRectangle;connectable=0;fillColor=none;top=0;left=0;bottom=0;right=0;align=left;spacingLeft=6;overflow=hidden;whiteSpace=wrap;html=1;labelBackgroundColor=#FFFFFF;fontSize=15;" parent="1" vertex="1">
          <mxGeometry x="3103.5" y="1901" width="178" height="28" as="geometry">
            <mxRectangle width="178" height="28" as="alternateBounds" />
          </mxGeometry>
        </mxCell>
        <mxCell id="ama2miM17LIpOyO-21Nn-117" value="Book description" style="shape=partialRectangle;connectable=0;fillColor=none;top=0;left=0;bottom=0;right=0;align=left;spacingLeft=6;overflow=hidden;whiteSpace=wrap;html=1;labelBackgroundColor=#FFFFFF;fontSize=15;" parent="1" vertex="1">
          <mxGeometry x="3096.5" y="1931" width="178" height="28" as="geometry">
            <mxRectangle width="178" height="28" as="alternateBounds" />
          </mxGeometry>
        </mxCell>
        <mxCell id="ama2miM17LIpOyO-21Nn-118" value="Edation" style="shape=partialRectangle;connectable=0;fillColor=none;top=0;left=0;bottom=0;right=0;align=left;spacingLeft=6;overflow=hidden;whiteSpace=wrap;html=1;labelBackgroundColor=#FFFFFF;fontSize=15;" parent="1" vertex="1">
          <mxGeometry x="3103.5" y="1873" width="239" height="28" as="geometry">
            <mxRectangle width="178" height="28" as="alternateBounds" />
          </mxGeometry>
        </mxCell>
        <mxCell id="ama2miM17LIpOyO-21Nn-119" value="No of Entity" style="shape=partialRectangle;connectable=0;fillColor=none;top=0;left=0;bottom=0;right=0;align=left;spacingLeft=6;overflow=hidden;whiteSpace=wrap;html=1;labelBackgroundColor=#FFFFFF;fontSize=15;" parent="1" vertex="1">
          <mxGeometry x="3103.5" y="1959" width="178" height="28" as="geometry">
            <mxRectangle width="178" height="28" as="alternateBounds" />
          </mxGeometry>
        </mxCell>
        <mxCell id="ama2miM17LIpOyO-21Nn-120" value="No of Copy" style="shape=partialRectangle;connectable=0;fillColor=none;top=0;left=0;bottom=0;right=0;align=left;spacingLeft=6;overflow=hidden;whiteSpace=wrap;html=1;labelBackgroundColor=#FFFFFF;fontSize=15;" parent="1" vertex="1">
          <mxGeometry x="3103.5" y="1991" width="178" height="28" as="geometry">
            <mxRectangle width="178" height="28" as="alternateBounds" />
          </mxGeometry>
        </mxCell>
        <mxCell id="ama2miM17LIpOyO-21Nn-121" value="Staue" style="shape=partialRectangle;connectable=0;fillColor=none;top=0;left=0;bottom=0;right=0;align=left;spacingLeft=6;overflow=hidden;whiteSpace=wrap;html=1;labelBackgroundColor=#FFFFFF;fontSize=15;" parent="1" vertex="1">
          <mxGeometry x="3096.5" y="2020" width="178" height="28" as="geometry">
            <mxRectangle width="178" height="28" as="alternateBounds" />
          </mxGeometry>
        </mxCell>
        <mxCell id="ama2miM17LIpOyO-21Nn-122" value="" style="fontSize=12;html=1;endArrow=ERoneToMany;startArrow=none;rounded=0;labelBackgroundColor=light-dark(#171616, #121212);verticalAlign=middle;fontFamily=Verdana;labelBorderColor=default;textShadow=0;startFill=0;endSize=8;startSize=8;targetPerimeterSpacing=2;sourcePerimeterSpacing=2;strokeColor=light-dark(#000000,#BABDC0);jumpStyle=line;strokeWidth=3;fillColor=#cdeb8b;exitX=1;exitY=0.5;exitDx=0;exitDy=0;entryX=0;entryY=0.5;entryDx=0;entryDy=0;" parent="1" source="ama2miM17LIpOyO-21Nn-226" target="ama2miM17LIpOyO-21Nn-107" edge="1">
          <mxGeometry width="100" height="100" relative="1" as="geometry">
            <mxPoint x="2721" y="1438" as="sourcePoint" />
            <mxPoint x="2829.2799999999997" y="1638.2000000000003" as="targetPoint" />
            <Array as="points">
              <mxPoint x="2800" y="1280" />
              <mxPoint x="2800" y="1751" />
            </Array>
          </mxGeometry>
        </mxCell>
        <mxCell id="ama2miM17LIpOyO-21Nn-124" value="&lt;div&gt;Return date&lt;/div&gt;" style="shape=partialRectangle;connectable=0;fillColor=none;top=0;left=0;bottom=0;right=0;align=left;spacingLeft=6;overflow=hidden;whiteSpace=wrap;html=1;labelBackgroundColor=#FFFFFF;swimlaneFillColor=default;fontSize=15;" parent="1" vertex="1">
          <mxGeometry x="1588.5" y="2121" width="149.9999999999999" height="20" as="geometry">
            <mxRectangle width="149.9999999999999" height="20" as="alternateBounds" />
          </mxGeometry>
        </mxCell>
        <mxCell id="ama2miM17LIpOyO-21Nn-125" value="" style="fontSize=20;html=1;endArrow=ERzeroToMany;startArrow=none;rounded=0;fontFamily=Verdana;fontColor=default;horizontal=0;labelBackgroundColor=light-dark(#171616, #121212);fontStyle=1;verticalAlign=middle;labelBorderColor=default;textShadow=0;startFill=0;endSize=8;startSize=8;targetPerimeterSpacing=2;sourcePerimeterSpacing=2;strokeColor=light-dark(#0a0a0a, #ff9164);jumpStyle=line;strokeWidth=2;entryX=0;entryY=0.5;entryDx=0;entryDy=0;" parent="1" target="ama2miM17LIpOyO-21Nn-36" edge="1">
          <mxGeometry width="100" height="100" relative="1" as="geometry">
            <mxPoint x="2042" y="1400" as="sourcePoint" />
            <mxPoint x="2137.5" y="1821" as="targetPoint" />
            <Array as="points">
              <mxPoint x="2000" y="1400" />
              <mxPoint x="2000" y="1760" />
            </Array>
          </mxGeometry>
        </mxCell>
        <mxCell id="ama2miM17LIpOyO-21Nn-126" value="&lt;h1&gt;&lt;font&gt;Created by: Murtaza Hussaini&lt;/font&gt;&lt;/h1&gt;&lt;h1&gt;&lt;font&gt;&amp;amp; Jaweid moraadi&amp;nbsp;&lt;/font&gt;&lt;/h1&gt;" style="shape=step;perimeter=stepPerimeter;whiteSpace=wrap;html=1;fixedSize=1;fillColor=#66FFFF;strokeColor=#6c8ebf;fillStyle=solid;labelBackgroundColor=#FFFFFF;fontSize=15;" parent="1" vertex="1">
          <mxGeometry x="1560" y="2288" width="460" height="160" as="geometry" />
        </mxCell>
        <mxCell id="ama2miM17LIpOyO-21Nn-127" value="&lt;font style=&quot;font-size: 19px;&quot;&gt;penalty&amp;nbsp;&lt;/font&gt;" style="shape=table;startSize=30;container=1;collapsible=1;childLayout=tableLayout;fixedRows=1;rowLines=0;fontStyle=1;align=center;resizeLast=1;html=1;labelBackgroundColor=#FFFFFF;swimlaneFillColor=default;fontSize=15;fillColor=#fa6800;fontColor=#000000;strokeColor=#C73500;" parent="1" vertex="1">
          <mxGeometry x="2547" y="2167" width="195" height="310" as="geometry" />
        </mxCell>
        <mxCell id="ama2miM17LIpOyO-21Nn-128" value="" style="shape=tableRow;horizontal=0;startSize=0;swimlaneHead=0;swimlaneBody=0;fillColor=none;collapsible=0;dropTarget=0;points=[[0,0.5],[1,0.5]];portConstraint=eastwest;top=0;left=0;right=0;bottom=1;labelBackgroundColor=#FFFFFF;swimlaneFillColor=default;fontSize=15;" parent="ama2miM17LIpOyO-21Nn-127" vertex="1">
          <mxGeometry y="30" width="195" height="32" as="geometry" />
        </mxCell>
        <mxCell id="ama2miM17LIpOyO-21Nn-129" value="PK" style="shape=partialRectangle;connectable=0;fillColor=none;top=0;left=0;bottom=0;right=0;fontStyle=1;overflow=hidden;whiteSpace=wrap;html=1;labelBackgroundColor=#FFFFFF;swimlaneFillColor=default;fontSize=15;" parent="ama2miM17LIpOyO-21Nn-128" vertex="1">
          <mxGeometry width="30.000000000000114" height="32" as="geometry">
            <mxRectangle width="30.000000000000114" height="32" as="alternateBounds" />
          </mxGeometry>
        </mxCell>
        <mxCell id="ama2miM17LIpOyO-21Nn-130" value="&lt;span style=&quot;font-size: 16px;&quot;&gt;penalty_ID&lt;/span&gt;" style="shape=partialRectangle;connectable=0;fillColor=none;top=0;left=0;bottom=0;right=0;align=left;spacingLeft=6;fontStyle=5;overflow=hidden;whiteSpace=wrap;html=1;labelBackgroundColor=#FFFFFF;swimlaneFillColor=default;fontSize=15;" parent="ama2miM17LIpOyO-21Nn-128" vertex="1">
          <mxGeometry x="30.000000000000114" width="164.9999999999999" height="32" as="geometry">
            <mxRectangle width="164.9999999999999" height="32" as="alternateBounds" />
          </mxGeometry>
        </mxCell>
        <mxCell id="ama2miM17LIpOyO-21Nn-131" value="" style="shape=tableRow;horizontal=0;startSize=0;swimlaneHead=0;swimlaneBody=0;fillColor=none;collapsible=0;dropTarget=0;points=[[0,0.5],[1,0.5]];portConstraint=eastwest;top=0;left=0;right=0;bottom=0;labelBackgroundColor=#FFFFFF;swimlaneFillColor=default;fontSize=15;" parent="ama2miM17LIpOyO-21Nn-127" vertex="1">
          <mxGeometry y="62" width="195" height="28" as="geometry" />
        </mxCell>
        <mxCell id="ama2miM17LIpOyO-21Nn-132" value="FK1" style="shape=partialRectangle;connectable=0;fillColor=none;top=0;left=0;bottom=0;right=0;editable=1;overflow=hidden;whiteSpace=wrap;html=1;labelBackgroundColor=#FFFFFF;swimlaneFillColor=default;fontSize=15;" parent="ama2miM17LIpOyO-21Nn-131" vertex="1">
          <mxGeometry width="30.000000000000114" height="28" as="geometry">
            <mxRectangle width="30.000000000000114" height="28" as="alternateBounds" />
          </mxGeometry>
        </mxCell>
        <mxCell id="ama2miM17LIpOyO-21Nn-133" value="Person_id" style="shape=partialRectangle;connectable=0;fillColor=none;top=0;left=0;bottom=0;right=0;align=left;spacingLeft=6;overflow=hidden;whiteSpace=wrap;html=1;labelBackgroundColor=#FFFFFF;swimlaneFillColor=default;fontSize=15;" parent="ama2miM17LIpOyO-21Nn-131" vertex="1">
          <mxGeometry x="30.000000000000114" width="164.9999999999999" height="28" as="geometry">
            <mxRectangle width="164.9999999999999" height="28" as="alternateBounds" />
          </mxGeometry>
        </mxCell>
        <mxCell id="ama2miM17LIpOyO-21Nn-134" value="" style="shape=tableRow;horizontal=0;startSize=0;swimlaneHead=0;swimlaneBody=0;fillColor=none;collapsible=0;dropTarget=0;points=[[0,0.5],[1,0.5]];portConstraint=eastwest;top=0;left=0;right=0;bottom=0;labelBackgroundColor=#FFFFFF;swimlaneFillColor=default;fontSize=15;" parent="ama2miM17LIpOyO-21Nn-127" vertex="1">
          <mxGeometry y="90" width="195" height="30" as="geometry" />
        </mxCell>
        <mxCell id="ama2miM17LIpOyO-21Nn-135" value="Fk2" style="shape=partialRectangle;connectable=0;fillColor=none;top=0;left=0;bottom=0;right=0;editable=1;overflow=hidden;whiteSpace=wrap;html=1;labelBackgroundColor=#FFFFFF;swimlaneFillColor=default;fontSize=15;" parent="ama2miM17LIpOyO-21Nn-134" vertex="1">
          <mxGeometry width="30.000000000000114" height="30" as="geometry">
            <mxRectangle width="30.000000000000114" height="30" as="alternateBounds" />
          </mxGeometry>
        </mxCell>
        <mxCell id="ama2miM17LIpOyO-21Nn-136" value="Transaction_ID" style="shape=partialRectangle;connectable=0;fillColor=none;top=0;left=0;bottom=0;right=0;align=left;spacingLeft=6;overflow=hidden;whiteSpace=wrap;html=1;labelBackgroundColor=#FFFFFF;swimlaneFillColor=default;fontSize=15;" parent="ama2miM17LIpOyO-21Nn-134" vertex="1">
          <mxGeometry x="30.000000000000114" width="164.9999999999999" height="30" as="geometry">
            <mxRectangle width="164.9999999999999" height="30" as="alternateBounds" />
          </mxGeometry>
        </mxCell>
        <mxCell id="ama2miM17LIpOyO-21Nn-137" value="" style="shape=tableRow;horizontal=0;startSize=0;swimlaneHead=0;swimlaneBody=0;fillColor=none;collapsible=0;dropTarget=0;points=[[0,0.5],[1,0.5]];portConstraint=eastwest;top=0;left=0;right=0;bottom=0;labelBackgroundColor=#FFFFFF;swimlaneFillColor=default;fontSize=15;" parent="ama2miM17LIpOyO-21Nn-127" vertex="1">
          <mxGeometry y="120" width="195" height="30" as="geometry" />
        </mxCell>
        <mxCell id="ama2miM17LIpOyO-21Nn-138" value="" style="shape=partialRectangle;connectable=0;fillColor=none;top=0;left=0;bottom=0;right=0;editable=1;overflow=hidden;whiteSpace=wrap;html=1;labelBackgroundColor=#FFFFFF;swimlaneFillColor=default;fontSize=15;" parent="ama2miM17LIpOyO-21Nn-137" vertex="1">
          <mxGeometry width="30.000000000000114" height="30" as="geometry">
            <mxRectangle width="30.000000000000114" height="30" as="alternateBounds" />
          </mxGeometry>
        </mxCell>
        <mxCell id="ama2miM17LIpOyO-21Nn-139" value="&lt;div&gt;Amount&lt;/div&gt;" style="shape=partialRectangle;connectable=0;fillColor=none;top=0;left=0;bottom=0;right=0;align=left;spacingLeft=6;overflow=hidden;whiteSpace=wrap;html=1;labelBackgroundColor=#FFFFFF;swimlaneFillColor=default;fontSize=15;" parent="ama2miM17LIpOyO-21Nn-137" vertex="1">
          <mxGeometry x="30.000000000000114" width="164.9999999999999" height="30" as="geometry">
            <mxRectangle width="164.9999999999999" height="30" as="alternateBounds" />
          </mxGeometry>
        </mxCell>
        <mxCell id="ama2miM17LIpOyO-21Nn-140" value="" style="shape=tableRow;horizontal=0;startSize=0;swimlaneHead=0;swimlaneBody=0;fillColor=none;collapsible=0;dropTarget=0;points=[[0,0.5],[1,0.5]];portConstraint=eastwest;top=0;left=0;right=0;bottom=0;labelBackgroundColor=#FFFFFF;swimlaneFillColor=default;fontSize=15;" parent="ama2miM17LIpOyO-21Nn-127" vertex="1">
          <mxGeometry y="150" width="195" height="20" as="geometry" />
        </mxCell>
        <mxCell id="ama2miM17LIpOyO-21Nn-141" value="" style="shape=partialRectangle;connectable=0;fillColor=none;top=0;left=0;bottom=0;right=0;editable=1;overflow=hidden;whiteSpace=wrap;html=1;labelBackgroundColor=#FFFFFF;swimlaneFillColor=default;fontSize=15;" parent="ama2miM17LIpOyO-21Nn-140" vertex="1">
          <mxGeometry width="30.000000000000114" height="20" as="geometry">
            <mxRectangle width="30.000000000000114" height="20" as="alternateBounds" />
          </mxGeometry>
        </mxCell>
        <mxCell id="ama2miM17LIpOyO-21Nn-142" value="penalty_Date" style="shape=partialRectangle;connectable=0;fillColor=none;top=0;left=0;bottom=0;right=0;align=left;spacingLeft=6;overflow=hidden;whiteSpace=wrap;html=1;labelBackgroundColor=#FFFFFF;swimlaneFillColor=default;fontSize=15;" parent="ama2miM17LIpOyO-21Nn-140" vertex="1">
          <mxGeometry x="30.000000000000114" width="164.9999999999999" height="20" as="geometry">
            <mxRectangle width="164.9999999999999" height="20" as="alternateBounds" />
          </mxGeometry>
        </mxCell>
        <mxCell id="ama2miM17LIpOyO-21Nn-143" value="" style="shape=tableRow;horizontal=0;startSize=0;swimlaneHead=0;swimlaneBody=0;fillColor=none;collapsible=0;dropTarget=0;points=[[0,0.5],[1,0.5]];portConstraint=eastwest;top=0;left=0;right=0;bottom=0;labelBackgroundColor=#FFFFFF;swimlaneFillColor=default;fontSize=15;" parent="ama2miM17LIpOyO-21Nn-127" vertex="1">
          <mxGeometry y="170" width="195" height="30" as="geometry" />
        </mxCell>
        <mxCell id="ama2miM17LIpOyO-21Nn-144" value="" style="shape=partialRectangle;connectable=0;fillColor=none;top=0;left=0;bottom=0;right=0;editable=1;overflow=hidden;whiteSpace=wrap;html=1;labelBackgroundColor=#FFFFFF;swimlaneFillColor=default;fontSize=15;" parent="ama2miM17LIpOyO-21Nn-143" vertex="1">
          <mxGeometry width="30.000000000000114" height="30" as="geometry">
            <mxRectangle width="30.000000000000114" height="30" as="alternateBounds" />
          </mxGeometry>
        </mxCell>
        <mxCell id="ama2miM17LIpOyO-21Nn-145" value="paid_status&amp;nbsp;" style="shape=partialRectangle;connectable=0;fillColor=none;top=0;left=0;bottom=0;right=0;align=left;spacingLeft=6;overflow=hidden;whiteSpace=wrap;html=1;labelBackgroundColor=#FFFFFF;swimlaneFillColor=default;fontSize=15;" parent="ama2miM17LIpOyO-21Nn-143" vertex="1">
          <mxGeometry x="30.000000000000114" width="164.9999999999999" height="30" as="geometry">
            <mxRectangle width="164.9999999999999" height="30" as="alternateBounds" />
          </mxGeometry>
        </mxCell>
        <mxCell id="ama2miM17LIpOyO-21Nn-146" value="" style="shape=tableRow;horizontal=0;startSize=0;swimlaneHead=0;swimlaneBody=0;fillColor=none;collapsible=0;dropTarget=0;points=[[0,0.5],[1,0.5]];portConstraint=eastwest;top=0;left=0;right=0;bottom=0;labelBackgroundColor=#FFFFFF;swimlaneFillColor=default;fontSize=15;" parent="ama2miM17LIpOyO-21Nn-127" vertex="1">
          <mxGeometry y="200" width="195" height="30" as="geometry" />
        </mxCell>
        <mxCell id="ama2miM17LIpOyO-21Nn-147" value="" style="shape=partialRectangle;connectable=0;fillColor=none;top=0;left=0;bottom=0;right=0;editable=1;overflow=hidden;whiteSpace=wrap;html=1;labelBackgroundColor=#FFFFFF;swimlaneFillColor=default;fontSize=15;" parent="ama2miM17LIpOyO-21Nn-146" vertex="1">
          <mxGeometry width="30.000000000000114" height="30" as="geometry">
            <mxRectangle width="30.000000000000114" height="30" as="alternateBounds" />
          </mxGeometry>
        </mxCell>
        <mxCell id="ama2miM17LIpOyO-21Nn-148" value="ِDue_Days" style="shape=partialRectangle;connectable=0;fillColor=none;top=0;left=0;bottom=0;right=0;align=left;spacingLeft=6;overflow=hidden;whiteSpace=wrap;html=1;labelBackgroundColor=#FFFFFF;swimlaneFillColor=default;fontSize=15;" parent="ama2miM17LIpOyO-21Nn-146" vertex="1">
          <mxGeometry x="30.000000000000114" width="164.9999999999999" height="30" as="geometry">
            <mxRectangle width="164.9999999999999" height="30" as="alternateBounds" />
          </mxGeometry>
        </mxCell>
        <mxCell id="ama2miM17LIpOyO-21Nn-149" value="" style="fontSize=12;html=1;endArrow=ERmandOne;startArrow=ERmandOne;rounded=0;strokeWidth=2;strokeColor=light-dark(#151414, #FF9164);" parent="1" edge="1">
          <mxGeometry width="100" height="100" relative="1" as="geometry">
            <mxPoint x="1760" y="2060" as="sourcePoint" />
            <mxPoint x="2547" y="2280" as="targetPoint" />
            <Array as="points">
              <mxPoint x="2000" y="2060" />
              <mxPoint x="2450" y="2060" />
              <mxPoint x="2510" y="2060" />
              <mxPoint x="2510" y="2280" />
            </Array>
          </mxGeometry>
        </mxCell>
        <mxCell id="ama2miM17LIpOyO-21Nn-150" value="FK1" style="shape=partialRectangle;connectable=0;fillColor=none;top=0;left=0;bottom=0;right=0;editable=1;overflow=hidden;whiteSpace=wrap;html=1;labelBackgroundColor=#FFFFFF;swimlaneFillColor=default;fontSize=15;" parent="1" vertex="1">
          <mxGeometry x="1628" y="1944" width="30" height="20" as="geometry">
            <mxRectangle width="30.000000000000114" height="20" as="alternateBounds" />
          </mxGeometry>
        </mxCell>
        <mxCell id="ama2miM17LIpOyO-21Nn-151" value="&lt;font style=&quot;font-size: 20px;&quot;&gt;Ware house&lt;/font&gt;" style="shape=table;startSize=30;container=1;collapsible=1;childLayout=tableLayout;fixedRows=1;rowLines=0;fontStyle=1;align=center;resizeLast=1;html=1;labelBackgroundColor=#FFFFFF;swimlaneFillColor=default;fontSize=15;fillColor=#fa6800;fontColor=#000000;strokeColor=#C73500;" parent="1" vertex="1">
          <mxGeometry x="3080" y="2135" width="230" height="364" as="geometry" />
        </mxCell>
        <mxCell id="ama2miM17LIpOyO-21Nn-152" value="" style="shape=tableRow;horizontal=0;startSize=0;swimlaneHead=0;swimlaneBody=0;fillColor=none;collapsible=0;dropTarget=0;points=[[0,0.5],[1,0.5]];portConstraint=eastwest;top=0;left=0;right=0;bottom=1;labelBackgroundColor=#FFFFFF;fontSize=15;" parent="ama2miM17LIpOyO-21Nn-151" vertex="1">
          <mxGeometry y="30" width="230" height="32" as="geometry" />
        </mxCell>
        <mxCell id="ama2miM17LIpOyO-21Nn-153" value="PK" style="shape=partialRectangle;connectable=0;fillColor=none;top=0;left=0;bottom=0;right=0;fontStyle=1;overflow=hidden;whiteSpace=wrap;html=1;labelBackgroundColor=#FFFFFF;fontSize=15;" parent="ama2miM17LIpOyO-21Nn-152" vertex="1">
          <mxGeometry width="30" height="32" as="geometry">
            <mxRectangle width="30" height="32" as="alternateBounds" />
          </mxGeometry>
        </mxCell>
        <mxCell id="ama2miM17LIpOyO-21Nn-154" value="&lt;font style=&quot;font-size: 17px;&quot;&gt;Storage_id&lt;/font&gt;" style="shape=partialRectangle;connectable=0;fillColor=none;top=0;left=0;bottom=0;right=0;align=left;spacingLeft=6;fontStyle=5;overflow=hidden;whiteSpace=wrap;html=1;labelBackgroundColor=#FFFFFF;fontSize=15;" parent="ama2miM17LIpOyO-21Nn-152" vertex="1">
          <mxGeometry x="30" width="200" height="32" as="geometry">
            <mxRectangle width="200" height="32" as="alternateBounds" />
          </mxGeometry>
        </mxCell>
        <mxCell id="ama2miM17LIpOyO-21Nn-155" value="" style="shape=tableRow;horizontal=0;startSize=0;swimlaneHead=0;swimlaneBody=0;fillColor=none;collapsible=0;dropTarget=0;points=[[0,0.5],[1,0.5]];portConstraint=eastwest;top=0;left=0;right=0;bottom=0;labelBackgroundColor=#FFFFFF;fontSize=15;" parent="ama2miM17LIpOyO-21Nn-151" vertex="1">
          <mxGeometry y="62" width="230" height="30" as="geometry" />
        </mxCell>
        <mxCell id="ama2miM17LIpOyO-21Nn-156" value="FK1" style="shape=partialRectangle;connectable=0;fillColor=none;top=0;left=0;bottom=0;right=0;editable=1;overflow=hidden;whiteSpace=wrap;html=1;labelBackgroundColor=#FFFFFF;fontSize=15;" parent="ama2miM17LIpOyO-21Nn-155" vertex="1">
          <mxGeometry width="30" height="30" as="geometry">
            <mxRectangle width="30" height="30" as="alternateBounds" />
          </mxGeometry>
        </mxCell>
        <mxCell id="ama2miM17LIpOyO-21Nn-157" value="Book_id" style="shape=partialRectangle;connectable=0;fillColor=none;top=0;left=0;bottom=0;right=0;align=left;spacingLeft=6;overflow=hidden;whiteSpace=wrap;html=1;labelBackgroundColor=#FFFFFF;fontSize=15;" parent="ama2miM17LIpOyO-21Nn-155" vertex="1">
          <mxGeometry x="30" width="200" height="30" as="geometry">
            <mxRectangle width="200" height="30" as="alternateBounds" />
          </mxGeometry>
        </mxCell>
        <mxCell id="ama2miM17LIpOyO-21Nn-158" value="" style="shape=tableRow;horizontal=0;startSize=0;swimlaneHead=0;swimlaneBody=0;fillColor=none;collapsible=0;dropTarget=0;points=[[0,0.5],[1,0.5]];portConstraint=eastwest;top=0;left=0;right=0;bottom=0;labelBackgroundColor=#FFFFFF;fontSize=15;" parent="ama2miM17LIpOyO-21Nn-151" vertex="1">
          <mxGeometry y="92" width="230" height="28" as="geometry" />
        </mxCell>
        <mxCell id="ama2miM17LIpOyO-21Nn-159" value="FK2" style="shape=partialRectangle;connectable=0;fillColor=none;top=0;left=0;bottom=0;right=0;editable=1;overflow=hidden;whiteSpace=wrap;html=1;labelBackgroundColor=#FFFFFF;fontSize=15;" parent="ama2miM17LIpOyO-21Nn-158" vertex="1">
          <mxGeometry width="30" height="28" as="geometry">
            <mxRectangle width="30" height="28" as="alternateBounds" />
          </mxGeometry>
        </mxCell>
        <mxCell id="ama2miM17LIpOyO-21Nn-160" value="Library_id" style="shape=partialRectangle;connectable=0;fillColor=none;top=0;left=0;bottom=0;right=0;align=left;spacingLeft=6;overflow=hidden;whiteSpace=wrap;html=1;labelBackgroundColor=#FFFFFF;fontSize=15;" parent="ama2miM17LIpOyO-21Nn-158" vertex="1">
          <mxGeometry x="30" width="200" height="28" as="geometry">
            <mxRectangle width="200" height="28" as="alternateBounds" />
          </mxGeometry>
        </mxCell>
        <mxCell id="ama2miM17LIpOyO-21Nn-161" value="" style="shape=tableRow;horizontal=0;startSize=0;swimlaneHead=0;swimlaneBody=0;fillColor=none;collapsible=0;dropTarget=0;points=[[0,0.5],[1,0.5]];portConstraint=eastwest;top=0;left=0;right=0;bottom=0;labelBackgroundColor=#FFFFFF;fontSize=15;" parent="ama2miM17LIpOyO-21Nn-151" vertex="1">
          <mxGeometry y="120" width="230" height="28" as="geometry" />
        </mxCell>
        <mxCell id="ama2miM17LIpOyO-21Nn-162" value="" style="shape=partialRectangle;connectable=0;fillColor=none;top=0;left=0;bottom=0;right=0;editable=1;overflow=hidden;whiteSpace=wrap;html=1;labelBackgroundColor=#FFFFFF;fontSize=15;" parent="ama2miM17LIpOyO-21Nn-161" vertex="1">
          <mxGeometry width="30" height="28" as="geometry">
            <mxRectangle width="30" height="28" as="alternateBounds" />
          </mxGeometry>
        </mxCell>
        <mxCell id="ama2miM17LIpOyO-21Nn-163" value="Location" style="shape=partialRectangle;connectable=0;fillColor=none;top=0;left=0;bottom=0;right=0;align=left;spacingLeft=6;overflow=hidden;whiteSpace=wrap;html=1;labelBackgroundColor=#FFFFFF;fontSize=15;" parent="ama2miM17LIpOyO-21Nn-161" vertex="1">
          <mxGeometry x="30" width="200" height="28" as="geometry">
            <mxRectangle width="200" height="28" as="alternateBounds" />
          </mxGeometry>
        </mxCell>
        <mxCell id="ama2miM17LIpOyO-21Nn-164" value="Quantity" style="shape=partialRectangle;connectable=0;fillColor=none;top=0;left=0;bottom=0;right=0;align=left;spacingLeft=6;overflow=hidden;whiteSpace=wrap;html=1;labelBackgroundColor=#FFFFFF;fontSize=15;" parent="1" vertex="1">
          <mxGeometry x="3110" y="2302" width="178" height="28" as="geometry">
            <mxRectangle width="178" height="28" as="alternateBounds" />
          </mxGeometry>
        </mxCell>
        <mxCell id="ama2miM17LIpOyO-21Nn-165" value="Current Load" style="shape=partialRectangle;connectable=0;fillColor=none;top=0;left=0;bottom=0;right=0;align=left;spacingLeft=6;overflow=hidden;whiteSpace=wrap;html=1;labelBackgroundColor=#FFFFFF;fontSize=15;" parent="1" vertex="1">
          <mxGeometry x="3110" y="2330" width="178" height="28" as="geometry">
            <mxRectangle width="178" height="28" as="alternateBounds" />
          </mxGeometry>
        </mxCell>
        <mxCell id="ama2miM17LIpOyO-21Nn-166" value="Statue" style="shape=partialRectangle;connectable=0;fillColor=none;top=0;left=0;bottom=0;right=0;align=left;spacingLeft=6;overflow=hidden;whiteSpace=wrap;html=1;labelBackgroundColor=#FFFFFF;fontSize=15;" parent="1" vertex="1">
          <mxGeometry x="3120" y="2361" width="178" height="28" as="geometry">
            <mxRectangle width="178" height="28" as="alternateBounds" />
          </mxGeometry>
        </mxCell>
        <mxCell id="ama2miM17LIpOyO-21Nn-167" value="Book_id" style="shape=partialRectangle;connectable=0;fillColor=none;top=0;left=0;bottom=0;right=0;align=left;spacingLeft=6;overflow=hidden;whiteSpace=wrap;html=1;labelBackgroundColor=#FFFFFF;fontSize=15;" parent="1" vertex="1">
          <mxGeometry x="1595.5" y="1701.5" width="178" height="30" as="geometry">
            <mxRectangle width="178" height="30" as="alternateBounds" />
          </mxGeometry>
        </mxCell>
        <mxCell id="ama2miM17LIpOyO-21Nn-168" value="&lt;b&gt;FK3&lt;/b&gt;" style="shape=partialRectangle;connectable=0;fillColor=none;top=0;left=0;bottom=0;right=0;editable=1;overflow=hidden;whiteSpace=wrap;html=1;labelBackgroundColor=#FFFFFF;fontSize=15;" parent="1" vertex="1">
          <mxGeometry x="1561.5" y="1701.5" width="20.5" height="30" as="geometry">
            <mxRectangle width="30" height="30" as="alternateBounds" />
          </mxGeometry>
        </mxCell>
        <mxCell id="ama2miM17LIpOyO-21Nn-169" value="&lt;div&gt;DueDate&lt;/div&gt;" style="shape=partialRectangle;connectable=0;fillColor=none;top=0;left=0;bottom=0;right=0;align=left;spacingLeft=6;overflow=hidden;whiteSpace=wrap;html=1;labelBackgroundColor=#FFFFFF;swimlaneFillColor=default;fontSize=15;" parent="1" vertex="1">
          <mxGeometry x="1590.5" y="2160" width="149.9999999999999" height="20" as="geometry">
            <mxRectangle width="149.9999999999999" height="20" as="alternateBounds" />
          </mxGeometry>
        </mxCell>
        <mxCell id="ama2miM17LIpOyO-21Nn-170" value="&lt;font style=&quot;font-size: 20px;&quot;&gt;Library Staff&lt;/font&gt;" style="shape=table;startSize=30;container=1;collapsible=1;childLayout=tableLayout;fixedRows=1;rowLines=0;fontStyle=1;align=center;resizeLast=1;html=1;labelBackgroundColor=#FFFFFF;swimlaneFillColor=default;fontSize=15;fillColor=#fa6800;fontColor=#000000;strokeColor=#C73500;" parent="1" vertex="1">
          <mxGeometry x="2040" y="2121" width="230" height="367" as="geometry" />
        </mxCell>
        <mxCell id="ama2miM17LIpOyO-21Nn-171" value="" style="shape=tableRow;horizontal=0;startSize=0;swimlaneHead=0;swimlaneBody=0;fillColor=none;collapsible=0;dropTarget=0;points=[[0,0.5],[1,0.5]];portConstraint=eastwest;top=0;left=0;right=0;bottom=1;labelBackgroundColor=#FFFFFF;fontSize=15;" parent="ama2miM17LIpOyO-21Nn-170" vertex="1">
          <mxGeometry y="30" width="230" height="32" as="geometry" />
        </mxCell>
        <mxCell id="ama2miM17LIpOyO-21Nn-172" value="PK" style="shape=partialRectangle;connectable=0;fillColor=none;top=0;left=0;bottom=0;right=0;fontStyle=1;overflow=hidden;whiteSpace=wrap;html=1;labelBackgroundColor=#FFFFFF;fontSize=15;" parent="ama2miM17LIpOyO-21Nn-171" vertex="1">
          <mxGeometry width="30" height="32" as="geometry">
            <mxRectangle width="30" height="32" as="alternateBounds" />
          </mxGeometry>
        </mxCell>
        <mxCell id="ama2miM17LIpOyO-21Nn-173" value="&lt;font style=&quot;font-size: 17px;&quot;&gt;Staff_id&lt;/font&gt;" style="shape=partialRectangle;connectable=0;fillColor=none;top=0;left=0;bottom=0;right=0;align=left;spacingLeft=6;fontStyle=5;overflow=hidden;whiteSpace=wrap;html=1;labelBackgroundColor=#FFFFFF;fontSize=15;" parent="ama2miM17LIpOyO-21Nn-171" vertex="1">
          <mxGeometry x="30" width="200" height="32" as="geometry">
            <mxRectangle width="200" height="32" as="alternateBounds" />
          </mxGeometry>
        </mxCell>
        <mxCell id="ama2miM17LIpOyO-21Nn-174" value="" style="shape=tableRow;horizontal=0;startSize=0;swimlaneHead=0;swimlaneBody=0;fillColor=none;collapsible=0;dropTarget=0;points=[[0,0.5],[1,0.5]];portConstraint=eastwest;top=0;left=0;right=0;bottom=0;labelBackgroundColor=#FFFFFF;fontSize=15;" parent="ama2miM17LIpOyO-21Nn-170" vertex="1">
          <mxGeometry y="62" width="230" height="30" as="geometry" />
        </mxCell>
        <mxCell id="ama2miM17LIpOyO-21Nn-175" value="" style="shape=partialRectangle;connectable=0;fillColor=none;top=0;left=0;bottom=0;right=0;editable=1;overflow=hidden;whiteSpace=wrap;html=1;labelBackgroundColor=#FFFFFF;fontSize=15;" parent="ama2miM17LIpOyO-21Nn-174" vertex="1">
          <mxGeometry width="30" height="30" as="geometry">
            <mxRectangle width="30" height="30" as="alternateBounds" />
          </mxGeometry>
        </mxCell>
        <mxCell id="ama2miM17LIpOyO-21Nn-176" value="Library_id" style="shape=partialRectangle;connectable=0;fillColor=none;top=0;left=0;bottom=0;right=0;align=left;spacingLeft=6;overflow=hidden;whiteSpace=wrap;html=1;labelBackgroundColor=#FFFFFF;fontSize=15;" parent="ama2miM17LIpOyO-21Nn-174" vertex="1">
          <mxGeometry x="30" width="200" height="30" as="geometry">
            <mxRectangle width="200" height="30" as="alternateBounds" />
          </mxGeometry>
        </mxCell>
        <mxCell id="ama2miM17LIpOyO-21Nn-177" value="" style="shape=tableRow;horizontal=0;startSize=0;swimlaneHead=0;swimlaneBody=0;fillColor=none;collapsible=0;dropTarget=0;points=[[0,0.5],[1,0.5]];portConstraint=eastwest;top=0;left=0;right=0;bottom=0;labelBackgroundColor=#FFFFFF;fontSize=15;" parent="ama2miM17LIpOyO-21Nn-170" vertex="1">
          <mxGeometry y="92" width="230" height="31" as="geometry" />
        </mxCell>
        <mxCell id="ama2miM17LIpOyO-21Nn-178" value="" style="shape=partialRectangle;connectable=0;fillColor=none;top=0;left=0;bottom=0;right=0;editable=1;overflow=hidden;whiteSpace=wrap;html=1;labelBackgroundColor=#FFFFFF;fontSize=15;" parent="ama2miM17LIpOyO-21Nn-177" vertex="1">
          <mxGeometry width="30" height="31" as="geometry">
            <mxRectangle width="30" height="31" as="alternateBounds" />
          </mxGeometry>
        </mxCell>
        <mxCell id="ama2miM17LIpOyO-21Nn-179" value="F/Name" style="shape=partialRectangle;connectable=0;fillColor=none;top=0;left=0;bottom=0;right=0;align=left;spacingLeft=6;overflow=hidden;whiteSpace=wrap;html=1;labelBackgroundColor=#FFFFFF;fontSize=15;" parent="ama2miM17LIpOyO-21Nn-177" vertex="1">
          <mxGeometry x="30" width="200" height="31" as="geometry">
            <mxRectangle width="200" height="31" as="alternateBounds" />
          </mxGeometry>
        </mxCell>
        <mxCell id="ama2miM17LIpOyO-21Nn-180" value="" style="shape=tableRow;horizontal=0;startSize=0;swimlaneHead=0;swimlaneBody=0;fillColor=none;collapsible=0;dropTarget=0;points=[[0,0.5],[1,0.5]];portConstraint=eastwest;top=0;left=0;right=0;bottom=0;labelBackgroundColor=#FFFFFF;fontSize=15;" parent="ama2miM17LIpOyO-21Nn-170" vertex="1">
          <mxGeometry y="123" width="230" height="28" as="geometry" />
        </mxCell>
        <mxCell id="ama2miM17LIpOyO-21Nn-181" value="" style="shape=partialRectangle;connectable=0;fillColor=none;top=0;left=0;bottom=0;right=0;editable=1;overflow=hidden;whiteSpace=wrap;html=1;labelBackgroundColor=#FFFFFF;fontSize=15;" parent="ama2miM17LIpOyO-21Nn-180" vertex="1">
          <mxGeometry width="30" height="28" as="geometry">
            <mxRectangle width="30" height="28" as="alternateBounds" />
          </mxGeometry>
        </mxCell>
        <mxCell id="ama2miM17LIpOyO-21Nn-182" value="F/Name" style="shape=partialRectangle;connectable=0;fillColor=none;top=0;left=0;bottom=0;right=0;align=left;spacingLeft=6;overflow=hidden;whiteSpace=wrap;html=1;labelBackgroundColor=#FFFFFF;fontSize=15;" parent="ama2miM17LIpOyO-21Nn-180" vertex="1">
          <mxGeometry x="30" width="200" height="28" as="geometry">
            <mxRectangle width="200" height="28" as="alternateBounds" />
          </mxGeometry>
        </mxCell>
        <mxCell id="ama2miM17LIpOyO-21Nn-183" value="Email" style="shape=partialRectangle;connectable=0;fillColor=none;top=0;left=0;bottom=0;right=0;align=left;spacingLeft=6;overflow=hidden;whiteSpace=wrap;html=1;labelBackgroundColor=#FFFFFF;fontSize=15;" parent="1" vertex="1">
          <mxGeometry x="2070" y="2268" width="178" height="28" as="geometry">
            <mxRectangle width="178" height="28" as="alternateBounds" />
          </mxGeometry>
        </mxCell>
        <mxCell id="ama2miM17LIpOyO-21Nn-184" value="Positiom" style="shape=partialRectangle;connectable=0;fillColor=none;top=0;left=0;bottom=0;right=0;align=left;spacingLeft=6;overflow=hidden;whiteSpace=wrap;html=1;labelBackgroundColor=#FFFFFF;fontSize=15;" parent="1" vertex="1">
          <mxGeometry x="2070" y="2283" width="178" height="28" as="geometry">
            <mxRectangle width="178" height="28" as="alternateBounds" />
          </mxGeometry>
        </mxCell>
        <mxCell id="ama2miM17LIpOyO-21Nn-185" value="HireDate" style="shape=partialRectangle;connectable=0;fillColor=none;top=0;left=0;bottom=0;right=0;align=left;spacingLeft=6;overflow=hidden;whiteSpace=wrap;html=1;labelBackgroundColor=#FFFFFF;fontSize=15;" parent="1" vertex="1">
          <mxGeometry x="2066" y="2308" width="178" height="28" as="geometry">
            <mxRectangle width="178" height="28" as="alternateBounds" />
          </mxGeometry>
        </mxCell>
        <mxCell id="ama2miM17LIpOyO-21Nn-186" value="Shift Time" style="shape=partialRectangle;connectable=0;fillColor=none;top=0;left=0;bottom=0;right=0;align=left;spacingLeft=6;overflow=hidden;whiteSpace=wrap;html=1;labelBackgroundColor=#FFFFFF;fontSize=15;" parent="1" vertex="1">
          <mxGeometry x="2064.5" y="2344" width="178" height="28" as="geometry">
            <mxRectangle width="178" height="28" as="alternateBounds" />
          </mxGeometry>
        </mxCell>
        <mxCell id="ama2miM17LIpOyO-21Nn-187" value="UserName" style="shape=partialRectangle;connectable=0;fillColor=none;top=0;left=0;bottom=0;right=0;align=left;spacingLeft=6;overflow=hidden;whiteSpace=wrap;html=1;labelBackgroundColor=#FFFFFF;fontSize=15;" parent="1" vertex="1">
          <mxGeometry x="2064.5" y="2372" width="178" height="28" as="geometry">
            <mxRectangle width="178" height="28" as="alternateBounds" />
          </mxGeometry>
        </mxCell>
        <mxCell id="ama2miM17LIpOyO-21Nn-188" value="Password" style="shape=partialRectangle;connectable=0;fillColor=none;top=0;left=0;bottom=0;right=0;align=left;spacingLeft=6;overflow=hidden;whiteSpace=wrap;html=1;labelBackgroundColor=#FFFFFF;fontSize=15;" parent="1" vertex="1">
          <mxGeometry x="2066" y="2400" width="178" height="28" as="geometry">
            <mxRectangle width="178" height="28" as="alternateBounds" />
          </mxGeometry>
        </mxCell>
        <mxCell id="ama2miM17LIpOyO-21Nn-189" value="Statue" style="shape=partialRectangle;connectable=0;fillColor=none;top=0;left=0;bottom=0;right=0;align=left;spacingLeft=6;overflow=hidden;whiteSpace=wrap;html=1;labelBackgroundColor=#FFFFFF;fontSize=15;" parent="1" vertex="1">
          <mxGeometry x="2066" y="2428" width="178" height="28" as="geometry">
            <mxRectangle width="178" height="28" as="alternateBounds" />
          </mxGeometry>
        </mxCell>
        <mxCell id="ama2miM17LIpOyO-21Nn-190" value="F/Name" style="shape=partialRectangle;connectable=0;fillColor=none;top=0;left=0;bottom=0;right=0;align=left;spacingLeft=6;overflow=hidden;whiteSpace=wrap;html=1;labelBackgroundColor=#FFFFFF;fontSize=15;" parent="1" vertex="1">
          <mxGeometry x="2543" y="1829" width="178" height="28" as="geometry">
            <mxRectangle width="178" height="28" as="alternateBounds" />
          </mxGeometry>
        </mxCell>
        <mxCell id="ama2miM17LIpOyO-21Nn-191" value="DOB" style="shape=partialRectangle;connectable=0;fillColor=none;top=0;left=0;bottom=0;right=0;align=left;spacingLeft=6;overflow=hidden;whiteSpace=wrap;html=1;labelBackgroundColor=#FFFFFF;swimlaneFillColor=default;strokeColor=default;fontSize=15;" parent="1" vertex="1">
          <mxGeometry x="2073" y="1856.38" width="150" height="28" as="geometry">
            <mxRectangle width="150" height="28" as="alternateBounds" />
          </mxGeometry>
        </mxCell>
        <mxCell id="ama2miM17LIpOyO-21Nn-192" value="Email" style="shape=partialRectangle;connectable=0;fillColor=none;top=0;left=0;bottom=0;right=0;align=left;spacingLeft=6;overflow=hidden;whiteSpace=wrap;html=1;labelBackgroundColor=#FFFFFF;swimlaneFillColor=default;strokeColor=default;fontSize=15;" parent="1" vertex="1">
          <mxGeometry x="2070" y="1875.38" width="150" height="28" as="geometry">
            <mxRectangle width="150" height="28" as="alternateBounds" />
          </mxGeometry>
        </mxCell>
        <mxCell id="ama2miM17LIpOyO-21Nn-193" value="Copy of Book" style="shape=partialRectangle;connectable=0;fillColor=none;top=0;left=0;bottom=0;right=0;align=left;spacingLeft=6;overflow=hidden;whiteSpace=wrap;html=1;labelBackgroundColor=#FFFFFF;fontSize=15;" parent="1" vertex="1">
          <mxGeometry x="3120" y="2389" width="178" height="28" as="geometry">
            <mxRectangle width="178" height="28" as="alternateBounds" />
          </mxGeometry>
        </mxCell>
        <mxCell id="ama2miM17LIpOyO-21Nn-195" value="" style="fontSize=12;html=1;endArrow=ERmany;startArrow=ERmany;rounded=0;strokeWidth=3;fillColor=#fa6800;strokeColor=#C73500;" parent="1" edge="1">
          <mxGeometry width="100" height="100" relative="1" as="geometry">
            <mxPoint x="2742" y="2195" as="sourcePoint" />
            <mxPoint x="2742.5" y="1696" as="targetPoint" />
            <Array as="points">
              <mxPoint x="2780" y="2195" />
              <mxPoint x="2780" y="1696" />
            </Array>
          </mxGeometry>
        </mxCell>
        <mxCell id="ama2miM17LIpOyO-21Nn-196" value="" style="fontSize=12;html=1;endArrow=ERmany;rounded=0;exitX=0;exitY=0.5;exitDx=0;exitDy=0;strokeWidth=2;" parent="1" source="ama2miM17LIpOyO-21Nn-171" target="ama2miM17LIpOyO-21Nn-78" edge="1">
          <mxGeometry width="100" height="100" relative="1" as="geometry">
            <mxPoint x="2082.5" y="2341" as="sourcePoint" />
            <mxPoint x="2182.5" y="2241" as="targetPoint" />
            <Array as="points">
              <mxPoint x="1840" y="2167" />
              <mxPoint x="1840" y="1685" />
            </Array>
          </mxGeometry>
        </mxCell>
        <mxCell id="ama2miM17LIpOyO-21Nn-197" value="" style="fontSize=12;html=1;endArrow=ERmany;rounded=0;exitX=0;exitY=0.5;exitDx=0;exitDy=0;strokeWidth=2;" parent="1" source="ama2miM17LIpOyO-21Nn-171" target="ama2miM17LIpOyO-21Nn-55" edge="1">
          <mxGeometry width="100" height="100" relative="1" as="geometry">
            <mxPoint x="1892.5" y="2221" as="sourcePoint" />
            <mxPoint x="2030" y="2000" as="targetPoint" />
            <Array as="points">
              <mxPoint x="2000" y="2167" />
              <mxPoint x="2000" y="1989" />
            </Array>
          </mxGeometry>
        </mxCell>
        <mxCell id="ama2miM17LIpOyO-21Nn-198" value="" style="fontSize=12;html=1;endArrow=ERmany;rounded=0;entryX=0.001;entryY=0.744;entryDx=0;entryDy=0;entryPerimeter=0;exitX=1;exitY=0.5;exitDx=0;exitDy=0;strokeWidth=3;fillColor=#fa6800;strokeColor=#C73500;" parent="1" source="ama2miM17LIpOyO-21Nn-171" target="ama2miM17LIpOyO-21Nn-128" edge="1">
          <mxGeometry width="100" height="100" relative="1" as="geometry">
            <mxPoint x="1992.5" y="2481" as="sourcePoint" />
            <mxPoint x="2092.5" y="2381" as="targetPoint" />
            <Array as="points">
              <mxPoint x="2320" y="2167" />
              <mxPoint x="2320" y="2221" />
            </Array>
          </mxGeometry>
        </mxCell>
        <mxCell id="ama2miM17LIpOyO-21Nn-199" value="" style="edgeStyle=entityRelationEdgeStyle;fontSize=20;html=1;endArrow=ERzeroToMany;startArrow=none;rounded=0;fontFamily=Verdana;fontColor=#1A1A1A;horizontal=0;labelBackgroundColor=light-dark(#171616, #121212);exitX=1;exitY=0.5;exitDx=0;exitDy=0;fillColor=#fa6800;strokeColor=light-dark(#0a0a0a, #ff9164);spacingTop=2;fontStyle=1;verticalAlign=middle;labelBorderColor=default;textShadow=0;entryX=0;entryY=0.5;entryDx=0;entryDy=0;startFill=0;endSize=8;startSize=8;targetPerimeterSpacing=2;sourcePerimeterSpacing=2;jumpStyle=line;strokeWidth=2;" parent="1" source="ama2miM17LIpOyO-21Nn-5" target="ama2miM17LIpOyO-21Nn-27" edge="1">
          <mxGeometry width="100" height="100" relative="1" as="geometry">
            <mxPoint x="2054" y="1430.5" as="sourcePoint" />
            <mxPoint x="2250.5" y="1423.5" as="targetPoint" />
            <Array as="points">
              <mxPoint x="2152" y="1335" />
              <mxPoint x="2162" y="1415" />
            </Array>
          </mxGeometry>
        </mxCell>
        <mxCell id="ama2miM17LIpOyO-21Nn-200" value="ReviceBy" style="shape=partialRectangle;connectable=0;fillColor=none;top=0;left=0;bottom=0;right=0;align=left;spacingLeft=6;overflow=hidden;whiteSpace=wrap;html=1;labelBackgroundColor=#FFFFFF;swimlaneFillColor=default;strokeColor=default;fontSize=15;" parent="1" vertex="1">
          <mxGeometry x="2074.5" y="1450" width="150" height="28" as="geometry">
            <mxRectangle width="150" height="28" as="alternateBounds" />
          </mxGeometry>
        </mxCell>
        <mxCell id="ama2miM17LIpOyO-21Nn-201" value="IssueBy" style="shape=partialRectangle;connectable=0;fillColor=none;top=0;left=0;bottom=0;right=0;align=left;spacingLeft=6;overflow=hidden;whiteSpace=wrap;html=1;labelBackgroundColor=#FFFFFF;swimlaneFillColor=default;strokeColor=default;fontSize=15;" parent="1" vertex="1">
          <mxGeometry x="2074.5" y="1472" width="150" height="28" as="geometry">
            <mxRectangle width="150" height="28" as="alternateBounds" />
          </mxGeometry>
        </mxCell>
        <mxCell id="ama2miM17LIpOyO-21Nn-202" value="Due Date" style="shape=partialRectangle;connectable=0;fillColor=none;top=0;left=0;bottom=0;right=0;align=left;spacingLeft=6;overflow=hidden;whiteSpace=wrap;html=1;labelBackgroundColor=#FFFFFF;swimlaneFillColor=default;strokeColor=default;fontSize=15;" parent="1" vertex="1">
          <mxGeometry x="2074.5" y="1500" width="150" height="28" as="geometry">
            <mxRectangle width="150" height="28" as="alternateBounds" />
          </mxGeometry>
        </mxCell>
        <mxCell id="ama2miM17LIpOyO-21Nn-203" value="Status&lt;span style=&quot;color: rgba(0, 0, 0, 0); font-family: monospace; font-size: 0px; text-wrap-mode: nowrap; background-color: rgb(236, 236, 236);&quot;&gt;%3CmxGraphModel%3E%3Croot%3E%3CmxCell%20id%3D%220%22%2F%3E%3CmxCell%20id%3D%221%22%20parent%3D%220%22%2F%3E%3CmxCell%20id%3D%222%22%20value%3D%22Due%20Date%22%20style%3D%22shape%3DpartialRectangle%3Bconnectable%3D0%3BfillColor%3Dnone%3Btop%3D0%3Bleft%3D0%3Bbottom%3D0%3Bright%3D0%3Balign%3Dleft%3BspacingLeft%3D6%3Boverflow%3Dhidden%3BwhiteSpace%3Dwrap%3Bhtml%3D1%3BlabelBackgroundColor%3D%23FFFFFF%3BswimlaneFillColor%3Ddefault%3BstrokeColor%3Ddefault%3BfontSize%3D15%3B%22%20vertex%3D%221%22%20parent%3D%221%22%3E%3CmxGeometry%20x%3D%22900%22%20y%3D%22356%22%20width%3D%22150%22%20height%3D%2228%22%20as%3D%22geometry%22%3E%3CmxRectangle%20width%3D%22150%22%20height%3D%2228%22%20as%3D%22alternateBounds%22%2F%3E%3C%2FmxGeometry%3E%3C%2FmxCell%3E%3C%2Froot%3E%3C%2FmxGraphModel%3E&lt;/span&gt;" style="shape=partialRectangle;connectable=0;fillColor=none;top=0;left=0;bottom=0;right=0;align=left;spacingLeft=6;overflow=hidden;whiteSpace=wrap;html=1;labelBackgroundColor=#FFFFFF;swimlaneFillColor=default;strokeColor=default;fontSize=15;" parent="1" vertex="1">
          <mxGeometry x="2074.5" y="1528" width="150" height="28" as="geometry">
            <mxRectangle width="150" height="28" as="alternateBounds" />
          </mxGeometry>
        </mxCell>
        <mxCell id="ama2miM17LIpOyO-21Nn-204" value="Note" style="shape=partialRectangle;connectable=0;fillColor=none;top=0;left=0;bottom=0;right=0;align=left;spacingLeft=6;overflow=hidden;whiteSpace=wrap;html=1;labelBackgroundColor=#FFFFFF;swimlaneFillColor=default;strokeColor=default;fontSize=15;" parent="1" vertex="1">
          <mxGeometry x="2078.5" y="1546" width="150" height="28" as="geometry">
            <mxRectangle width="150" height="28" as="alternateBounds" />
          </mxGeometry>
        </mxCell>
        <mxCell id="ama2miM17LIpOyO-21Nn-205" value="&lt;font style=&quot;font-size: 20px;&quot;&gt;Category&lt;/font&gt;" style="shape=table;startSize=30;container=1;collapsible=1;childLayout=tableLayout;fixedRows=1;rowLines=0;fontStyle=1;align=center;resizeLast=1;html=1;labelBackgroundColor=#FFFFFF;swimlaneFillColor=default;strokeColor=#C73500;fontSize=15;fillColor=#fa6800;fontColor=#000000;" parent="1" vertex="1">
          <mxGeometry x="3085" y="1260" width="227" height="245" as="geometry" />
        </mxCell>
        <mxCell id="ama2miM17LIpOyO-21Nn-206" value="" style="shape=tableRow;horizontal=0;startSize=0;swimlaneHead=0;swimlaneBody=0;fillColor=none;collapsible=0;dropTarget=0;points=[[0,0.5],[1,0.5]];portConstraint=eastwest;top=0;left=0;right=0;bottom=1;labelBackgroundColor=#FFFFFF;swimlaneFillColor=default;strokeColor=default;fontSize=15;" parent="ama2miM17LIpOyO-21Nn-205" vertex="1">
          <mxGeometry y="30" width="227" height="32" as="geometry" />
        </mxCell>
        <mxCell id="ama2miM17LIpOyO-21Nn-207" value="PK" style="shape=partialRectangle;connectable=0;fillColor=none;top=0;left=0;bottom=0;right=0;fontStyle=1;overflow=hidden;whiteSpace=wrap;html=1;labelBackgroundColor=#FFFFFF;swimlaneFillColor=default;strokeColor=default;fontSize=15;" parent="ama2miM17LIpOyO-21Nn-206" vertex="1">
          <mxGeometry width="30" height="32" as="geometry">
            <mxRectangle width="30" height="32" as="alternateBounds" />
          </mxGeometry>
        </mxCell>
        <mxCell id="ama2miM17LIpOyO-21Nn-208" value="Categoty_id" style="shape=partialRectangle;connectable=0;fillColor=none;top=0;left=0;bottom=0;right=0;align=left;spacingLeft=6;fontStyle=5;overflow=hidden;whiteSpace=wrap;html=1;labelBackgroundColor=#FFFFFF;swimlaneFillColor=default;strokeColor=default;fontSize=15;" parent="ama2miM17LIpOyO-21Nn-206" vertex="1">
          <mxGeometry x="30" width="197" height="32" as="geometry">
            <mxRectangle width="197" height="32" as="alternateBounds" />
          </mxGeometry>
        </mxCell>
        <mxCell id="ama2miM17LIpOyO-21Nn-209" value="" style="shape=tableRow;horizontal=0;startSize=0;swimlaneHead=0;swimlaneBody=0;fillColor=none;collapsible=0;dropTarget=0;points=[[0,0.5],[1,0.5]];portConstraint=eastwest;top=0;left=0;right=0;bottom=0;labelBackgroundColor=#FFFFFF;swimlaneFillColor=default;strokeColor=default;fontSize=15;" parent="ama2miM17LIpOyO-21Nn-205" vertex="1">
          <mxGeometry y="62" width="227" height="30" as="geometry" />
        </mxCell>
        <mxCell id="ama2miM17LIpOyO-21Nn-210" value="" style="shape=partialRectangle;connectable=0;fillColor=none;top=0;left=0;bottom=0;right=0;editable=1;overflow=hidden;whiteSpace=wrap;html=1;labelBackgroundColor=#FFFFFF;swimlaneFillColor=default;strokeColor=default;fontSize=15;" parent="ama2miM17LIpOyO-21Nn-209" vertex="1">
          <mxGeometry width="30" height="30" as="geometry">
            <mxRectangle width="30" height="30" as="alternateBounds" />
          </mxGeometry>
        </mxCell>
        <mxCell id="ama2miM17LIpOyO-21Nn-211" value="Name" style="shape=partialRectangle;connectable=0;fillColor=none;top=0;left=0;bottom=0;right=0;align=left;spacingLeft=6;overflow=hidden;whiteSpace=wrap;html=1;labelBackgroundColor=#FFFFFF;swimlaneFillColor=default;strokeColor=default;fontSize=15;" parent="ama2miM17LIpOyO-21Nn-209" vertex="1">
          <mxGeometry x="30" width="197" height="30" as="geometry">
            <mxRectangle width="197" height="30" as="alternateBounds" />
          </mxGeometry>
        </mxCell>
        <mxCell id="ama2miM17LIpOyO-21Nn-212" value="" style="shape=tableRow;horizontal=0;startSize=0;swimlaneHead=0;swimlaneBody=0;fillColor=none;collapsible=0;dropTarget=0;points=[[0,0.5],[1,0.5]];portConstraint=eastwest;top=0;left=0;right=0;bottom=0;labelBackgroundColor=#FFFFFF;swimlaneFillColor=default;strokeColor=default;fontSize=15;" parent="ama2miM17LIpOyO-21Nn-205" vertex="1">
          <mxGeometry y="92" width="227" height="30" as="geometry" />
        </mxCell>
        <mxCell id="ama2miM17LIpOyO-21Nn-213" value="" style="shape=partialRectangle;connectable=0;fillColor=none;top=0;left=0;bottom=0;right=0;editable=1;overflow=hidden;whiteSpace=wrap;html=1;labelBackgroundColor=#FFFFFF;swimlaneFillColor=default;strokeColor=default;fontSize=15;" parent="ama2miM17LIpOyO-21Nn-212" vertex="1">
          <mxGeometry width="30" height="30" as="geometry">
            <mxRectangle width="30" height="30" as="alternateBounds" />
          </mxGeometry>
        </mxCell>
        <mxCell id="ama2miM17LIpOyO-21Nn-214" value="Description" style="shape=partialRectangle;connectable=0;fillColor=none;top=0;left=0;bottom=0;right=0;align=left;spacingLeft=6;overflow=hidden;whiteSpace=wrap;html=1;labelBackgroundColor=#FFFFFF;swimlaneFillColor=default;strokeColor=default;fontSize=15;" parent="ama2miM17LIpOyO-21Nn-212" vertex="1">
          <mxGeometry x="30" width="197" height="30" as="geometry">
            <mxRectangle width="197" height="30" as="alternateBounds" />
          </mxGeometry>
        </mxCell>
        <mxCell id="ama2miM17LIpOyO-21Nn-215" value="" style="shape=tableRow;horizontal=0;startSize=0;swimlaneHead=0;swimlaneBody=0;fillColor=none;collapsible=0;dropTarget=0;points=[[0,0.5],[1,0.5]];portConstraint=eastwest;top=0;left=0;right=0;bottom=0;labelBackgroundColor=#FFFFFF;swimlaneFillColor=default;strokeColor=default;fontSize=15;" parent="ama2miM17LIpOyO-21Nn-205" vertex="1">
          <mxGeometry y="122" width="227" height="28" as="geometry" />
        </mxCell>
        <mxCell id="ama2miM17LIpOyO-21Nn-216" value="" style="shape=partialRectangle;connectable=0;fillColor=none;top=0;left=0;bottom=0;right=0;editable=1;overflow=hidden;whiteSpace=wrap;html=1;labelBackgroundColor=#FFFFFF;swimlaneFillColor=default;strokeColor=default;fontSize=15;" parent="ama2miM17LIpOyO-21Nn-215" vertex="1">
          <mxGeometry width="30" height="28" as="geometry">
            <mxRectangle width="30" height="28" as="alternateBounds" />
          </mxGeometry>
        </mxCell>
        <mxCell id="ama2miM17LIpOyO-21Nn-217" value="Location" style="shape=partialRectangle;connectable=0;fillColor=none;top=0;left=0;bottom=0;right=0;align=left;spacingLeft=6;overflow=hidden;whiteSpace=wrap;html=1;labelBackgroundColor=#FFFFFF;swimlaneFillColor=default;strokeColor=default;fontSize=15;" parent="ama2miM17LIpOyO-21Nn-215" vertex="1">
          <mxGeometry x="30" width="197" height="28" as="geometry">
            <mxRectangle width="197" height="28" as="alternateBounds" />
          </mxGeometry>
        </mxCell>
        <mxCell id="ama2miM17LIpOyO-21Nn-218" value="Quantity of Book" style="shape=partialRectangle;connectable=0;fillColor=none;top=0;left=0;bottom=0;right=0;align=left;spacingLeft=6;overflow=hidden;whiteSpace=wrap;html=1;labelBackgroundColor=#FFFFFF;fontSize=15;" parent="1" vertex="1">
          <mxGeometry x="3109.5" y="1412" width="178" height="28" as="geometry">
            <mxRectangle width="178" height="28" as="alternateBounds" />
          </mxGeometry>
        </mxCell>
        <mxCell id="ama2miM17LIpOyO-21Nn-219" value="No Ware House&amp;nbsp;" style="shape=partialRectangle;connectable=0;fillColor=none;top=0;left=0;bottom=0;right=0;align=left;spacingLeft=6;overflow=hidden;whiteSpace=wrap;html=1;labelBackgroundColor=#FFFFFF;fontSize=15;" parent="1" vertex="1">
          <mxGeometry x="3110" y="1452" width="178" height="28" as="geometry">
            <mxRectangle width="178" height="28" as="alternateBounds" />
          </mxGeometry>
        </mxCell>
        <mxCell id="ama2miM17LIpOyO-21Nn-220" value="Book Name" style="shape=partialRectangle;connectable=0;fillColor=none;top=0;left=0;bottom=0;right=0;align=left;spacingLeft=6;overflow=hidden;whiteSpace=wrap;html=1;labelBackgroundColor=#FFFFFF;fontSize=15;" parent="1" vertex="1">
          <mxGeometry x="3103.5" y="1848" width="239" height="28" as="geometry">
            <mxRectangle width="178" height="28" as="alternateBounds" />
          </mxGeometry>
        </mxCell>
        <mxCell id="ama2miM17LIpOyO-21Nn-223" value="" style="fontSize=12;html=1;endArrow=ERmany;rounded=0;entryX=-0.007;entryY=0.822;entryDx=0;entryDy=0;strokeWidth=4;entryPerimeter=0;fillColor=#fa6800;strokeColor=#C73500;exitX=0.967;exitY=0.233;exitDx=0;exitDy=0;exitPerimeter=0;" parent="1" source="ama2miM17LIpOyO-21Nn-61" target="ama2miM17LIpOyO-21Nn-85" edge="1">
          <mxGeometry width="100" height="100" relative="1" as="geometry">
            <mxPoint x="1760" y="2038" as="sourcePoint" />
            <mxPoint x="2317.5" y="2305" as="targetPoint" />
            <Array as="points">
              <mxPoint x="2070" y="2040" />
              <mxPoint x="2460" y="2040" />
              <mxPoint x="2460" y="1706" />
            </Array>
          </mxGeometry>
        </mxCell>
        <mxCell id="ama2miM17LIpOyO-21Nn-224" value="" style="fontSize=12;html=1;endArrow=ERmany;startArrow=ERmany;rounded=0;entryX=0;entryY=0.5;entryDx=0;entryDy=0;exitX=1;exitY=0.5;exitDx=0;exitDy=0;strokeWidth=2;" parent="1" source="ama2miM17LIpOyO-21Nn-72" target="ama2miM17LIpOyO-21Nn-85" edge="1">
          <mxGeometry width="100" height="100" relative="1" as="geometry">
            <mxPoint x="2032.5" y="1801" as="sourcePoint" />
            <mxPoint x="2132.5" y="1701" as="targetPoint" />
            <Array as="points">
              <mxPoint x="2400" y="1620" />
              <mxPoint x="2400" y="1696" />
            </Array>
          </mxGeometry>
        </mxCell>
        <mxCell id="3mJ2-X8jhUhgv_CpCuyT-5" value="Text" style="edgeLabel;html=1;align=center;verticalAlign=middle;resizable=0;points=[];" parent="ama2miM17LIpOyO-21Nn-224" vertex="1" connectable="0">
          <mxGeometry x="-0.2493" y="-7" relative="1" as="geometry">
            <mxPoint x="1" as="offset" />
          </mxGeometry>
        </mxCell>
        <mxCell id="lqZeWSwiJrOTpmpd0NPC-2" value="" style="edgeStyle=orthogonalEdgeStyle;rounded=0;orthogonalLoop=1;jettySize=auto;html=1;entryX=1.018;entryY=0.767;entryDx=0;entryDy=0;entryPerimeter=0;" parent="1" target="ama2miM17LIpOyO-21Nn-27" edge="1">
          <mxGeometry relative="1" as="geometry">
            <mxPoint x="2290" y="1364.44" as="targetPoint" />
            <mxPoint x="2520.5" y="1364.44" as="sourcePoint" />
          </mxGeometry>
        </mxCell>
        <mxCell id="ama2miM17LIpOyO-21Nn-225" value="&lt;font style=&quot;font-size: 20px;&quot;&gt;Library&lt;/font&gt;" style="shape=table;startSize=30;container=1;collapsible=1;childLayout=tableLayout;fixedRows=1;rowLines=0;fontStyle=1;align=center;resizeLast=1;html=1;labelBackgroundColor=#FFFFFF;swimlaneFillColor=default;fontSize=15;fillColor=#fa6800;fontColor=#000000;strokeColor=#C73500;" parent="1" vertex="1">
          <mxGeometry x="2512" y="1234" width="230" height="352" as="geometry" />
        </mxCell>
        <mxCell id="ama2miM17LIpOyO-21Nn-226" value="" style="shape=tableRow;horizontal=0;startSize=0;swimlaneHead=0;swimlaneBody=0;fillColor=none;collapsible=0;dropTarget=0;points=[[0,0.5],[1,0.5]];portConstraint=eastwest;top=0;left=0;right=0;bottom=1;labelBackgroundColor=#FFFFFF;fontSize=15;" parent="ama2miM17LIpOyO-21Nn-225" vertex="1">
          <mxGeometry y="30" width="230" height="32" as="geometry" />
        </mxCell>
        <mxCell id="ama2miM17LIpOyO-21Nn-227" value="PK" style="shape=partialRectangle;connectable=0;fillColor=none;top=0;left=0;bottom=0;right=0;fontStyle=1;overflow=hidden;whiteSpace=wrap;html=1;labelBackgroundColor=#FFFFFF;fontSize=15;" parent="ama2miM17LIpOyO-21Nn-226" vertex="1">
          <mxGeometry width="30" height="32" as="geometry">
            <mxRectangle width="30" height="32" as="alternateBounds" />
          </mxGeometry>
        </mxCell>
        <mxCell id="ama2miM17LIpOyO-21Nn-228" value="Library_id" style="shape=partialRectangle;connectable=0;fillColor=none;top=0;left=0;bottom=0;right=0;align=left;spacingLeft=6;fontStyle=5;overflow=hidden;whiteSpace=wrap;html=1;labelBackgroundColor=#FFFFFF;fontSize=15;" parent="ama2miM17LIpOyO-21Nn-226" vertex="1">
          <mxGeometry x="30" width="200" height="32" as="geometry">
            <mxRectangle width="200" height="32" as="alternateBounds" />
          </mxGeometry>
        </mxCell>
        <mxCell id="ama2miM17LIpOyO-21Nn-229" value="" style="shape=tableRow;horizontal=0;startSize=0;swimlaneHead=0;swimlaneBody=0;fillColor=none;collapsible=0;dropTarget=0;points=[[0,0.5],[1,0.5]];portConstraint=eastwest;top=0;left=0;right=0;bottom=0;labelBackgroundColor=#FFFFFF;fontSize=15;" parent="ama2miM17LIpOyO-21Nn-225" vertex="1">
          <mxGeometry y="62" width="230" height="30" as="geometry" />
        </mxCell>
        <mxCell id="ama2miM17LIpOyO-21Nn-230" value="&lt;b&gt;FK1&lt;/b&gt;" style="shape=partialRectangle;connectable=0;fillColor=none;top=0;left=0;bottom=0;right=0;editable=1;overflow=hidden;whiteSpace=wrap;html=1;labelBackgroundColor=#FFFFFF;fontSize=15;" parent="ama2miM17LIpOyO-21Nn-229" vertex="1">
          <mxGeometry width="30" height="30" as="geometry">
            <mxRectangle width="30" height="30" as="alternateBounds" />
          </mxGeometry>
        </mxCell>
        <mxCell id="ama2miM17LIpOyO-21Nn-231" value="Branck Name" style="shape=partialRectangle;connectable=0;fillColor=none;top=0;left=0;bottom=0;right=0;align=left;spacingLeft=6;overflow=hidden;whiteSpace=wrap;html=1;labelBackgroundColor=#FFFFFF;fontSize=15;" parent="ama2miM17LIpOyO-21Nn-229" vertex="1">
          <mxGeometry x="30" width="200" height="30" as="geometry">
            <mxRectangle width="200" height="30" as="alternateBounds" />
          </mxGeometry>
        </mxCell>
        <mxCell id="ama2miM17LIpOyO-21Nn-232" value="" style="shape=tableRow;horizontal=0;startSize=0;swimlaneHead=0;swimlaneBody=0;fillColor=none;collapsible=0;dropTarget=0;points=[[0,0.5],[1,0.5]];portConstraint=eastwest;top=0;left=0;right=0;bottom=0;labelBackgroundColor=#FFFFFF;fontSize=15;" parent="ama2miM17LIpOyO-21Nn-225" vertex="1">
          <mxGeometry y="92" width="230" height="28" as="geometry" />
        </mxCell>
        <mxCell id="ama2miM17LIpOyO-21Nn-233" value="&lt;b&gt;FK2&lt;/b&gt;" style="shape=partialRectangle;connectable=0;fillColor=none;top=0;left=0;bottom=0;right=0;editable=1;overflow=hidden;whiteSpace=wrap;html=1;labelBackgroundColor=#FFFFFF;fontSize=15;" parent="ama2miM17LIpOyO-21Nn-232" vertex="1">
          <mxGeometry width="30" height="28" as="geometry">
            <mxRectangle width="30" height="28" as="alternateBounds" />
          </mxGeometry>
        </mxCell>
        <mxCell id="ama2miM17LIpOyO-21Nn-234" value="Location" style="shape=partialRectangle;connectable=0;fillColor=none;top=0;left=0;bottom=0;right=0;align=left;spacingLeft=6;overflow=hidden;whiteSpace=wrap;html=1;labelBackgroundColor=#FFFFFF;fontSize=15;" parent="ama2miM17LIpOyO-21Nn-232" vertex="1">
          <mxGeometry x="30" width="200" height="28" as="geometry">
            <mxRectangle width="200" height="28" as="alternateBounds" />
          </mxGeometry>
        </mxCell>
        <mxCell id="ama2miM17LIpOyO-21Nn-235" value="" style="shape=tableRow;horizontal=0;startSize=0;swimlaneHead=0;swimlaneBody=0;fillColor=none;collapsible=0;dropTarget=0;points=[[0,0.5],[1,0.5]];portConstraint=eastwest;top=0;left=0;right=0;bottom=0;labelBackgroundColor=#FFFFFF;fontSize=15;" parent="ama2miM17LIpOyO-21Nn-225" vertex="1">
          <mxGeometry y="120" width="230" height="20" as="geometry" />
        </mxCell>
        <mxCell id="ama2miM17LIpOyO-21Nn-236" value="" style="shape=partialRectangle;connectable=0;fillColor=none;top=0;left=0;bottom=0;right=0;editable=1;overflow=hidden;whiteSpace=wrap;html=1;labelBackgroundColor=#FFFFFF;fontSize=15;" parent="ama2miM17LIpOyO-21Nn-235" vertex="1">
          <mxGeometry width="30" height="20" as="geometry">
            <mxRectangle width="30" height="20" as="alternateBounds" />
          </mxGeometry>
        </mxCell>
        <mxCell id="ama2miM17LIpOyO-21Nn-237" value="Library Manager" style="shape=partialRectangle;connectable=0;fillColor=none;top=0;left=0;bottom=0;right=0;align=left;spacingLeft=6;overflow=hidden;whiteSpace=wrap;html=1;labelBackgroundColor=#FFFFFF;fontSize=15;" parent="ama2miM17LIpOyO-21Nn-235" vertex="1">
          <mxGeometry x="30" width="200" height="20" as="geometry">
            <mxRectangle width="200" height="20" as="alternateBounds" />
          </mxGeometry>
        </mxCell>
        <mxCell id="ama2miM17LIpOyO-21Nn-238" value="Staff Count" style="shape=partialRectangle;connectable=0;fillColor=none;top=0;left=0;bottom=0;right=0;align=left;spacingLeft=6;overflow=hidden;whiteSpace=wrap;html=1;labelBackgroundColor=#FFFFFF;fontSize=15;" parent="1" vertex="1">
          <mxGeometry x="2541" y="1450" width="178" height="28" as="geometry">
            <mxRectangle width="178" height="28" as="alternateBounds" />
          </mxGeometry>
        </mxCell>
        <mxCell id="ama2miM17LIpOyO-21Nn-239" value="Member count" style="shape=partialRectangle;connectable=0;fillColor=none;top=0;left=0;bottom=0;right=0;align=left;spacingLeft=6;overflow=hidden;whiteSpace=wrap;html=1;labelBackgroundColor=#FFFFFF;fontSize=15;" parent="1" vertex="1">
          <mxGeometry x="2540" y="1478" width="178" height="28" as="geometry">
            <mxRectangle width="178" height="28" as="alternateBounds" />
          </mxGeometry>
        </mxCell>
        <mxCell id="ama2miM17LIpOyO-21Nn-240" value="Ctegory count" style="shape=partialRectangle;connectable=0;fillColor=none;top=0;left=0;bottom=0;right=0;align=left;spacingLeft=6;overflow=hidden;whiteSpace=wrap;html=1;labelBackgroundColor=#FFFFFF;fontSize=15;" parent="1" vertex="1">
          <mxGeometry x="2543" y="1418" width="178" height="28" as="geometry">
            <mxRectangle width="178" height="28" as="alternateBounds" />
          </mxGeometry>
        </mxCell>
        <mxCell id="ama2miM17LIpOyO-21Nn-241" value="Books Issued" style="shape=partialRectangle;connectable=0;fillColor=none;top=0;left=0;bottom=0;right=0;align=left;spacingLeft=6;overflow=hidden;whiteSpace=wrap;html=1;labelBackgroundColor=#FFFFFF;fontSize=15;" parent="1" vertex="1">
          <mxGeometry x="2543" y="1506" width="178" height="28" as="geometry">
            <mxRectangle width="178" height="28" as="alternateBounds" />
          </mxGeometry>
        </mxCell>
        <mxCell id="ama2miM17LIpOyO-21Nn-242" value="Status" style="shape=partialRectangle;connectable=0;fillColor=none;top=0;left=0;bottom=0;right=0;align=left;spacingLeft=6;overflow=hidden;whiteSpace=wrap;html=1;labelBackgroundColor=#FFFFFF;fontSize=15;" parent="1" vertex="1">
          <mxGeometry x="2547" y="1534" width="178" height="28" as="geometry">
            <mxRectangle width="178" height="28" as="alternateBounds" />
          </mxGeometry>
        </mxCell>
        <mxCell id="ama2miM17LIpOyO-21Nn-243" value="Description" style="shape=partialRectangle;connectable=0;fillColor=none;top=0;left=0;bottom=0;right=0;align=left;spacingLeft=6;overflow=hidden;whiteSpace=wrap;html=1;labelBackgroundColor=#FFFFFF;fontSize=15;" parent="1" vertex="1">
          <mxGeometry x="2547" y="1560" width="178" height="28" as="geometry">
            <mxRectangle width="178" height="28" as="alternateBounds" />
          </mxGeometry>
        </mxCell>
        <mxCell id="ama2miM17LIpOyO-21Nn-244" value="Total Books" style="shape=partialRectangle;connectable=0;fillColor=none;top=0;left=0;bottom=0;right=0;align=left;spacingLeft=6;overflow=hidden;whiteSpace=wrap;html=1;labelBackgroundColor=#FFFFFF;fontSize=15;" parent="1" vertex="1">
          <mxGeometry x="2543" y="1390" width="178" height="28" as="geometry">
            <mxRectangle width="178" height="28" as="alternateBounds" />
          </mxGeometry>
        </mxCell>
        <mxCell id="ama2miM17LIpOyO-21Nn-245" value="Author Name" style="shape=partialRectangle;connectable=0;fillColor=none;top=0;left=0;bottom=0;right=0;align=left;spacingLeft=6;overflow=hidden;whiteSpace=wrap;html=1;labelBackgroundColor=#FFFFFF;fontSize=15;" parent="1" vertex="1">
          <mxGeometry x="3096.5" y="1823" width="239" height="28" as="geometry">
            <mxRectangle width="178" height="28" as="alternateBounds" />
          </mxGeometry>
        </mxCell>
        <mxCell id="ama2miM17LIpOyO-21Nn-246" value="Phone" style="shape=partialRectangle;connectable=0;fillColor=none;top=0;left=0;bottom=0;right=0;align=left;spacingLeft=6;overflow=hidden;whiteSpace=wrap;html=1;labelBackgroundColor=#FFFFFF;fontSize=15;" parent="1" vertex="1">
          <mxGeometry x="2066" y="2448" width="178" height="28" as="geometry">
            <mxRectangle width="178" height="28" as="alternateBounds" />
          </mxGeometry>
        </mxCell>
        <mxCell id="ama2miM17LIpOyO-21Nn-247" value="Shelf Number" style="shape=partialRectangle;connectable=0;fillColor=none;top=0;left=0;bottom=0;right=0;align=left;spacingLeft=6;overflow=hidden;whiteSpace=wrap;html=1;labelBackgroundColor=#FFFFFF;fontSize=15;" parent="1" vertex="1">
          <mxGeometry x="3109.5" y="2277" width="178" height="28" as="geometry">
            <mxRectangle width="178" height="28" as="alternateBounds" />
          </mxGeometry>
        </mxCell>
        <mxCell id="ama2miM17LIpOyO-21Nn-248" value="Full Name" style="shape=partialRectangle;connectable=0;fillColor=none;top=0;left=0;bottom=0;right=0;align=left;spacingLeft=6;overflow=hidden;whiteSpace=wrap;html=1;labelBackgroundColor=#FFFFFF;fontSize=15;" parent="1" vertex="1">
          <mxGeometry x="2542" y="1797" width="178" height="28" as="geometry">
            <mxRectangle width="178" height="28" as="alternateBounds" />
          </mxGeometry>
        </mxCell>
        <mxCell id="ama2miM17LIpOyO-21Nn-249" value="" style="fontSize=12;html=1;endArrow=ERoneToMany;startArrow=none;rounded=0;labelBackgroundColor=light-dark(#171616, #121212);verticalAlign=middle;fontFamily=Verdana;labelBorderColor=default;textShadow=0;startFill=0;endSize=8;startSize=8;targetPerimeterSpacing=2;sourcePerimeterSpacing=2;strokeColor=light-dark(#000000,#BABDC0);jumpStyle=line;strokeWidth=2;fillColor=#cdeb8b;entryX=0;entryY=0.5;entryDx=0;entryDy=0;" parent="1" target="ama2miM17LIpOyO-21Nn-84" edge="1">
          <mxGeometry width="100" height="100" relative="1" as="geometry">
            <mxPoint x="2282" y="1470" as="sourcePoint" />
            <mxPoint x="2522.5" y="1660" as="targetPoint" />
            <Array as="points">
              <mxPoint x="2320" y="1470" />
              <mxPoint x="2320" y="1840" />
            </Array>
          </mxGeometry>
        </mxCell>
        <mxCell id="ama2miM17LIpOyO-21Nn-250" value="" style="edgeStyle=entityRelationEdgeStyle;fontSize=12;html=1;endArrow=ERoneToMany;startArrow=none;rounded=0;labelBackgroundColor=light-dark(#171616, #121212);verticalAlign=middle;fontFamily=Verdana;labelBorderColor=default;textShadow=0;startFill=0;endSize=8;startSize=8;targetPerimeterSpacing=2;sourcePerimeterSpacing=2;strokeColor=light-dark(#000000,#BABDC0);jumpStyle=line;strokeWidth=2;fillColor=#cdeb8b;entryX=1;entryY=0.5;entryDx=0;entryDy=0;" parent="1" source="ama2miM17LIpOyO-21Nn-229" target="ama2miM17LIpOyO-21Nn-94" edge="1">
          <mxGeometry width="100" height="100" relative="1" as="geometry">
            <mxPoint x="2752.5" y="1316" as="sourcePoint" />
            <mxPoint x="2854.5" y="1738" as="targetPoint" />
            <Array as="points">
              <mxPoint x="2812.7799999999997" y="1740.1999999999998" />
              <mxPoint x="2723.2799999999997" y="1583.1999999999998" />
              <mxPoint x="2783.2799999999997" y="1603.1999999999998" />
            </Array>
          </mxGeometry>
        </mxCell>
        <mxCell id="ama2miM17LIpOyO-21Nn-252" value="" style="fontSize=12;html=1;endArrow=ERoneToMany;startArrow=none;rounded=0;labelBackgroundColor=light-dark(#171616, #121212);verticalAlign=middle;fontFamily=Verdana;labelBorderColor=default;textShadow=0;startFill=0;endSize=8;startSize=8;targetPerimeterSpacing=2;sourcePerimeterSpacing=2;strokeColor=light-dark(#000000,#BABDC0);jumpStyle=line;strokeWidth=3;fillColor=#cdeb8b;entryX=1;entryY=0.5;entryDx=0;entryDy=0;" parent="1" target="ama2miM17LIpOyO-21Nn-174" edge="1">
          <mxGeometry width="100" height="100" relative="1" as="geometry">
            <mxPoint x="2510" y="1401" as="sourcePoint" />
            <mxPoint x="2864.5" y="1748" as="targetPoint" />
            <Array as="points">
              <mxPoint x="2470" y="1401" />
              <mxPoint x="2490" y="2198" />
            </Array>
          </mxGeometry>
        </mxCell>
        <mxCell id="3mJ2-X8jhUhgv_CpCuyT-27" value="" style="fontSize=12;html=1;endArrow=ERmandOne;startArrow=ERmandOne;rounded=0;exitX=0.979;exitY=1.012;exitDx=0;exitDy=0;exitPerimeter=0;entryX=1;entryY=0.5;entryDx=0;entryDy=0;strokeWidth=4;fillColor=#fa6800;strokeColor=#C73500;" parent="1" source="ama2miM17LIpOyO-21Nn-155" target="ama2miM17LIpOyO-21Nn-215" edge="1">
          <mxGeometry width="100" height="100" relative="1" as="geometry">
            <mxPoint x="3410" y="1982" as="sourcePoint" />
            <mxPoint x="3420" y="1542" as="targetPoint" />
            <Array as="points">
              <mxPoint x="3350" y="2227" />
              <mxPoint x="3350" y="1396" />
            </Array>
          </mxGeometry>
        </mxCell>
        <mxCell id="3mJ2-X8jhUhgv_CpCuyT-28" value="" style="fontSize=12;html=1;endArrow=ERmandOne;startArrow=ERmandOne;rounded=0;exitX=1;exitY=0.5;exitDx=0;exitDy=0;entryX=1;entryY=0.5;entryDx=0;entryDy=0;strokeWidth=3;" parent="1" source="ama2miM17LIpOyO-21Nn-152" target="ama2miM17LIpOyO-21Nn-104" edge="1">
          <mxGeometry width="100" height="100" relative="1" as="geometry">
            <mxPoint x="3370" y="2240.5" as="sourcePoint" />
            <mxPoint x="3377" y="1409.5" as="targetPoint" />
            <Array as="points">
              <mxPoint x="3390" y="2181" />
              <mxPoint x="3390" y="1720" />
            </Array>
          </mxGeometry>
        </mxCell>
        <mxCell id="3mJ2-X8jhUhgv_CpCuyT-29" value="" style="fontSize=12;html=1;endArrow=ERmany;rounded=0;entryX=0;entryY=0.5;entryDx=0;entryDy=0;exitX=1;exitY=0.5;exitDx=0;exitDy=0;fillColor=#fa6800;strokeColor=#C73500;strokeWidth=3;" parent="1" source="ama2miM17LIpOyO-21Nn-225" target="ama2miM17LIpOyO-21Nn-155" edge="1">
          <mxGeometry width="100" height="100" relative="1" as="geometry">
            <mxPoint x="3320" y="1800" as="sourcePoint" />
            <mxPoint x="3370" y="1580" as="targetPoint" />
            <Array as="points">
              <mxPoint x="2840" y="1410" />
              <mxPoint x="2840" y="2200" />
            </Array>
          </mxGeometry>
        </mxCell>
        <mxCell id="3mJ2-X8jhUhgv_CpCuyT-30" value="" style="fontSize=12;html=1;endArrow=ERmandOne;rounded=0;entryX=1;entryY=0.5;entryDx=0;entryDy=0;fillColor=#fa6800;strokeColor=#C73500;strokeWidth=2;" parent="1" target="ama2miM17LIpOyO-21Nn-110" edge="1">
          <mxGeometry width="100" height="100" relative="1" as="geometry">
            <mxPoint x="3320" y="1302" as="sourcePoint" />
            <mxPoint x="3450" y="1492" as="targetPoint" />
            <Array as="points">
              <mxPoint x="3410" y="1302" />
              <mxPoint x="3410" y="1782" />
            </Array>
          </mxGeometry>
        </mxCell>
        <mxCell id="3mJ2-X8jhUhgv_CpCuyT-35" value="Return_date" style="text;html=1;align=center;verticalAlign=middle;resizable=0;points=[];autosize=1;strokeColor=none;fillColor=none;fontFamily=Helvetica;fontSize=15;fontColor=default;horizontal=0;rotation=90;labelBackgroundColor=#FFFFFF;" parent="1" vertex="1">
          <mxGeometry x="1688" y="1589" width="40" height="100" as="geometry" />
        </mxCell>
      </root>
    </mxGraphModel>
  </diagram>
</mxfile>
